0
SECTION
2
HEADER
9
$INSUNITS
70
4
9
$ACADVER
1
AC1014
9
$HANDSEED
5
FFFF
0
ENDSEC
0
SECTION
2
TABLES
0
TABLE
2
VPORT
5
8
100
AcDbSymbolTable
0
ENDTAB
0
TABLE
2
LTYPE
5
5
100
AcDbSymbolTable
0
LTYPE
5
14
100
AcDbSymbolTableRecord
100
AcDbLinetypeTableRecord
2
BYBLOCK
70
0
0
LTYPE
5
15
100
AcDbSymbolTableRecord
100
AcDbLinetypeTableRecord
2
BYLAYER
70
0
0
ENDTAB
0
TABLE
2
LAYER
5
2
100
AcDbSymbolTable
70
2
0
LAYER
5
50
100
AcDbSymbolTableRecord
100
AcDbLayerTableRecord
2
0
70
0
6
CONTINUOUS
0
ENDTAB
0
TABLE
2
STYLE
5
3
100
AcDbSymbolTable
70
1
0
STYLE
5
11
100
AcDbSymbolTableRecord
100
AcDbTextStyleTableRecord
2
STANDARD
70
0
0
ENDTAB
0
TABLE
2
VIEW
5
6
100
AcDbSymbolTable
70
0
0
ENDTAB
0
TABLE
2
UCS
5
7
100
AcDbSymbolTable
70
0
0
ENDTAB
0
TABLE
2
APPID
5
9
100
AcDbSymbolTable
70
2
0
APPID
5
12
100
AcDbSymbolTableRecord
100
AcDbRegAppTableRecord
2
ACAD
70
0
0
ENDTAB
0
TABLE
2
DIMSTYLE
5
A
100
AcDbSymbolTable
70
1
0
ENDTAB
0
TABLE
2
BLOCK_RECORD
5
1
100
AcDbSymbolTable
70
1
0
BLOCK_RECORD
5
1F
100
AcDbSymbolTableRecord
100
AcDbBlockTableRecord
2
*MODEL_SPACE
0
BLOCK_RECORD
5
1B
100
AcDbSymbolTableRecord
100
AcDbBlockTableRecord
2
*PAPER_SPACE
0
ENDTAB
0
ENDSEC
0
SECTION
2
BLOCKS
0
BLOCK
5
20
100
AcDbEntity
100
AcDbBlockBegin
2
*MODEL_SPACE
0
ENDBLK
5
21
100
AcDbEntity
100
AcDbBlockEnd
0
BLOCK
5
1C
100
AcDbEntity
100
AcDbBlockBegin
2
*PAPER_SPACE
0
ENDBLK
5
1D
100
AcDbEntity
100
AcDbBlockEnd
0
ENDSEC
0
SECTION
2
ENTITIES
0
LWPOLYLINE
5
100
100
AcDbEntity
8
0
100
AcDbPolyline
90
2
70
1
43
0.0
10
24.270068041316925
20
-303.5002621287108
10
2.0910764070014132
20
-300.65923737756611
0
ARC
5
101
100
AcDbEntity
8
0
100
AcDbCircle
10
163.57467106063538
20
-190.94535199997833
30
2.2204460492503131e-15
40
2.0000000000000444
210
-3.9806851659956529e-17
220
5.4122014833366895e-17
230
1
100
AcDbArc
50
-15.200431070457295
51
82.700431070456759
0
LINE
5
102
100
AcDbEntity
8
0
100
AcDbLine
10
165.50470010431303
20
-191.46974487803908
30
2.3256556282163145e-15
11
159.64193207823706
21
-213.04767440392459
31
3.1549087339928917e-15
0
LINE
5
103
100
AcDbEntity
8
0
100
AcDbLine
10
159.64193207823706
20
-213.04767440392459
30
3.1549087339928917e-15
11
179.04543539771808
21
-224.15997166788168
31
4.7044813695502136e-15
0
ARC
5
104
100
AcDbEntity
8
0
100
AcDbCircle
10
178.05150053312931
20
-225.89551005263576
30
7.7715611723760958e-15
40
2.0000000000000231
210
-3.9806851659957183e-17
220
5.4122014833366827e-17
230
1
100
AcDbArc
50
-37.700431070458542
51
60.200431070456403
0
LINE
5
105
100
AcDbEntity
8
0
100
AcDbLine
10
179.63393839725131
20
-227.11857603866969
30
7.9007478371326129e-15
11
165.95993087980034
21
-244.81039929022717
31
8.1847591039818838e-15
0
LINE
5
106
100
AcDbEntity
8
0
100
AcDbLine
10
165.95993087980034
20
-244.81039929022717
30
8.1847591039818838e-15
11
179.63393839725137
21
-262.5022225417847
31
9.2733974816705219e-15
0
ARC
5
107
100
AcDbEntity
8
0
100
AcDbCircle
10
178.0515005331294
20
-263.72528852781858
30
2.2204460492503131e-15
40
2.0000000000000178
210
-3.9806851659957361e-17
220
5.4122014833366784e-17
230
1
100
AcDbArc
50
-60.200431070457192
51
37.700431070457718
0
LINE
5
108
100
AcDbEntity
8
0
100
AcDbLine
10
179.04543539771817
20
-265.46082691257271
30
2.3539423011681982e-15
11
159.64193207823715
21
-276.5731241765298
31
2.0494735882809067e-15
0
LINE
5
109
100
AcDbEntity
8
0
100
AcDbLine
10
159.64193207823715
20
-276.5731241765298
30
2.0494735882809067e-15
11
165.50470010431312
21
-298.15105370241531
31
1.1393226580630485e-14
0
ARC
5
110
100
AcDbEntity
8
0
100
AcDbCircle
10
163.57467106063552
20
-298.67544658047609
30
3.3306690738754696e-15
40
2.0000000000000187
210
-3.9806851659957805e-17
220
5.4122014833367481e-17
230
1
100
AcDbArc
50
-82.700431070458492
51
15.200431070458521
0
LINE
5
111
100
AcDbEntity
8
0
100
AcDbLine
10
163.82878535259934
20
-300.65923737756628
30
3.4481513187467627e-15
11
141.6497937182838
21
-303.50026212871092
31
2.6015552276442433e-15
0
LINE
5
112
100
AcDbEntity
8
0
100
AcDbLine
10
141.6497937182838
20
-303.50026212871092
30
2.6015552276442433e-15
11
138.8087689671392
21
-325.67925376302651
31
1.1079286685016885e-14
0
ARC
5
113
100
AcDbEntity
8
0
100
AcDbCircle
10
136.82497817004904
20
-325.42513947106272
30
1.1102230246251565e-14
40
1.9999999999999756
210
-3.9806851659957226e-17
220
5.4122014833368867e-17
230
1
100
AcDbArc
50
254.79956892954203
51
352.70043107045927
0
LINE
5
114
100
AcDbEntity
8
0
100
AcDbLine
10
136.30058529198828
20
-327.35516851474028
30
1.1185812877273814e-14
11
114.72265576610286
21
-321.49240048866432
31
9.9259759884137494e-15
0
LINE
5
115
100
AcDbEntity
8
0
100
AcDbLine
10
114.72265576610286
20
-321.49240048866432
30
9.9259759884137494e-15
11
103.61035850214589
21
-340.89590380814542
31
7.2691492734394938e-15
0
ARC
5
116
100
AcDbEntity
8
0
100
AcDbCircle
10
101.87482011739176
20
-339.90196894355671
30
6.6613381477509392e-15
40
2.0000000000000013
210
-3.9806851659957688e-17
220
5.4122014833367099e-17
230
1
100
AcDbArc
50
232.29956892954226
51
330.20043107045842
0
LINE
5
117
100
AcDbEntity
8
0
100
AcDbLine
10
100.65175413135789
20
-341.48440680767868
30
6.6982964670294416e-15
11
82.959930879800439
21
-327.81039929022756
31
5.2170175262909379e-15
0
LINE
5
118
100
AcDbEntity
8
0
100
AcDbLine
10
82.959930879800439
20
-327.81039929022756
30
5.2170175262909379e-15
11
65.268107628243001
21
-341.48440680767862
31
3.3664781277975972e-15
0
ARC
5
119
100
AcDbEntity
8
0
100
AcDbCircle
10
64.045041642209114
20
-339.90196894355665
30
9.9920072216264089e-15
40
1.9999999999999845
210
-3.9806851659957213e-17
220
5.4122014833367382e-17
230
1
100
AcDbArc
50
209.79956892954166
51
307.70043107045802
0
LINE
5
120
100
AcDbEntity
8
0
100
AcDbLine
10
62.309503257454999
20
-340.89590380814536
30
9.9767146600790126e-15
11
51.197205993497974
21
-321.49240048866432
31
8.4995049583624739e-15
0
LINE
5
121
100
AcDbEntity
8
0
100
AcDbLine
10
51.197205993497974
20
-321.49240048866432
30
8.4995049583624739e-15
11
29.619276467612529
21
-327.35516851474023
31
6.1196935260568701e-15
0
ARC
5
122
100
AcDbEntity
8
0
100
AcDbCircle
10
29.09488358955177
20
-325.42513947106261
30
3.3306690738754696e-15
40
2.0000000000000013
210
-3.9806851659958693e-17
220
5.4122014833367062e-17
230
1
100
AcDbArc
50
187.29956892954232
51
285.2004310704578
0
LINE
5
123
100
AcDbEntity
8
0
100
AcDbLine
10
27.111092792461591
20
-325.67925376302645
30
3.2654537853703496e-15
11
24.270068041316925
21
-303.5002621287108
31
1.1102230246251565e-15
0
ARC
5
124
100
AcDbEntity
8
0
100
AcDbCircle
10
2.345190698965256
20
-298.67544658047598
30
-3.3306690738754696e-15
40
2.0000000000000013
210
-3.980685165995738e-17
220
5.4122014833367111e-17
230
1
100
AcDbArc
50
164.79956892954169
51
262.70043107045751
0
LINE
5
125
100
AcDbEntity
8
0
100
AcDbLine
10
0.41516165528763693
20
-298.1510537024152
30
-3.435878652841471e-15
11
6.2779296813635632
21
-276.57312417652969
31
-4.2651317586180494e-15
0
LINE
5
126
100
AcDbEntity
8
0
100
AcDbLine
10
6.2779296813635632
20
-276.57312417652969
30
-4.2651317586180494e-15
11
-13.125573638117416
21
-265.4608269125726
31
3.0670798028258833e-15
0
ARC
5
127
100
AcDbEntity
8
0
100
AcDbCircle
10
-12.131638773528692
20
-263.72528852781846
30
0
40
2.0000000000000013
210
-3.9806851659957824e-17
220
5.4122014833367222e-17
230
1
100
AcDbArc
50
142.29956892954277
51
240.20043107045825
0
LINE
5
128
100
AcDbEntity
8
0
100
AcDbLine
10
-13.714076637650692
20
-262.50222254178459
30
-1.2918666475651709e-16
11
-0.040069120199692776
21
-244.81039929022705
31
-4.1319793160578797e-16
0
LINE
5
129
100
AcDbEntity
8
0
100
AcDbLine
10
-0.040069120199692776
20
-244.81039929022705
30
-4.1319793160578797e-16
11
-13.714076637650727
21
-227.11857603866952
31
-1.5018363092944281e-15
0
ARC
5
130
100
AcDbEntity
8
0
100
AcDbCircle
10
-12.131638773528728
20
-225.89551005263561
30
-3.3306690738754696e-15
40
2.0000000000000089
210
-3.9806851659957657e-17
220
5.4122014833367296e-17
230
1
100
AcDbArc
50
119.79956892954216
51
217.70043107045788
0
LINE
5
131
100
AcDbEntity
8
0
100
AcDbLine
10
-13.125573638117469
20
-224.15997166788148
30
-3.4641653257933555e-15
11
6.2779296813634922
21
-213.04767440392447
31
-3.1596966129060637e-15
0
LINE
5
132
100
AcDbEntity
8
0
100
AcDbLine
10
6.2779296813634922
20
-213.04767440392447
30
-3.1596966129060637e-15
11
0.41516165528753923
21
-191.46974487803897
31
-3.6216654082543892e-15
0
ARC
5
133
100
AcDbEntity
8
0
100
AcDbCircle
10
2.3451906989651494
20
-190.94535199997819
30
-4.4408920985006262e-15
40
1.999999999999988
210
-3.9806851659957713e-17
220
5.4122014833368004e-17
230
1
100
AcDbArc
50
97.299568929542531
51
195.20043107045839
0
LINE
5
134
100
AcDbEntity
8
0
100
AcDbLine
10
2.0910764070012977
20
-188.96156120288799
30
-4.5583743433719196e-15
11
24.270068041316833
21
-186.12053645174336
31
-3.7117782522693991e-15
0
LINE
5
135
100
AcDbEntity
8
0
100
AcDbLine
10
24.270068041316833
20
-186.12053645174336
30
-3.7117782522693991e-15
11
27.111092792461456
21
-163.94154481742771
31
-2.1975024880156337e-15
0
ARC
5
136
100
AcDbEntity
8
0
100
AcDbCircle
10
29.094883589551628
20
-164.19565910939156
30
-3.3306690738754696e-15
40
2.0000000000000373
210
-3.9806851659957836e-17
220
5.4122014833366242e-17
230
1
100
AcDbArc
50
74.799568929542986
51
172.7004310704576
0
LINE
5
137
100
AcDbEntity
8
0
100
AcDbLine
10
29.619276467612377
20
-162.26563006571388
30
-3.4142517048977174e-15
11
51.197205993497796
21
-168.12839809178996
31
-2.1544148160376516e-15
0
LINE
5
138
100
AcDbEntity
8
0
100
AcDbLine
10
51.197205993497796
20
-168.12839809178996
30
-2.1544148160376516e-15
11
62.309503257454764
21
-148.72489477230886
31
-8.3793722980646519e-15
0
ARC
5
139
100
AcDbEntity
8
0
100
AcDbCircle
10
64.045041642208901
20
-149.71882963689762
30
-7.7715611723760958e-15
40
2.0000000000000071
210
-3.9806851659957608e-17
220
5.4122014833367246e-17
230
1
100
AcDbArc
50
52.299568929542772
51
150.2004310704572
0
LINE
5
140
100
AcDbEntity
8
0
100
AcDbLine
10
65.268107628242774
20
-148.13639177277562
30
-7.8085194916545981e-15
11
82.959930879800226
21
-161.81039929022674
31
-6.3272405509160944e-15
0
LINE
5
141
100
AcDbEntity
8
0
100
AcDbLine
10
82.959930879800226
20
-161.81039929022674
30
-6.3272405509160944e-15
11
100.65175413135765
21
-148.13639177277562
31
-4.4767011524227537e-15
0
ARC
5
142
100
AcDbEntity
8
0
100
AcDbCircle
10
101.87482011739152
20
-149.71882963689765
30
-2.2204460492503131e-15
40
2.0000000000000178
210
-3.9806851659957756e-17
220
5.4122014833367105e-17
230
1
100
AcDbArc
50
29.799568929542772
51
127.70043107045673
0
LINE
5
143
100
AcDbEntity
8
0
100
AcDbLine
10
103.61035850214566
20
-148.72489477230889
30
-2.205153487702916e-15
11
113.9544436594705
21
-166.78700073649682
31
-8.3112301891908359e-16
0
ARC
5
144
100
AcDbEntity
8
0
100
AcDbCircle
10
115.68998204422464
20
-165.79306587190808
30
1.1102230246251565e-15
40
2.0000000000000178
210
-8.7549178893366242e-16
220
-4.2447091187143554e-16
230
1
100
AcDbArc
50
209.79956892954203
51
285.20043107045694
0
LINE
5
145
100
AcDbEntity
8
0
100
AcDbLine
10
116.21437492228537
20
-167.72309491558573
30
1.2355545146644098e-15
11
136.30058529198809
21
-162.26563006571399
31
2.7246458522904326e-15
0
ARC
5
146
100
AcDbEntity
8
0
100
AcDbCircle
10
136.82497817004884
20
-164.19565910939161
30
-4.4408920985006262e-15
40
1.999999999999988
210
-3.980685165995791e-17
220
5.4122014833367117e-17
230
1
100
AcDbArc
50
7.2995689295424109
51
105.20043107045754
0
LINE
5
147
100
AcDbEntity
8
0
100
AcDbLine
10
138.808768967139
20
-163.94154481742777
30
-4.3756768099955066e-15
11
141.64979371828369
21
-186.12053645174345
31
-3.1274281334479816e-15
0
LINE
5
148
100
AcDbEntity
8
0
100
AcDbLine
10
141.64979371828369
20
-186.12053645174345
30
-3.1274281334479816e-15
11
163.82878535259925
21
-188.96156120288816
31
2.1231947842287804e-15
0
LINE
5
149
100
AcDbEntity
8
0
100
AcDbLine
10
31.632847607119192
20
-321.62680789693354
30
2.9333932137571827e-15
11
29.229545034042388
21
-302.86497639880116
31
1.1102230246251565e-15
0
LINE
5
150
100
AcDbEntity
8
0
100
AcDbLine
10
53.615521688802815
20
-315.65406993895965
30
8.2441998783377637e-15
11
31.632847607119192
21
-321.62680789693354
31
2.9333932137571827e-15
0
LINE
5
151
100
AcDbEntity
8
0
100
AcDbLine
10
64.93625608824135
20
-335.42153136306558
30
9.7491181043510748e-15
11
53.615521688802815
21
-315.65406993895965
31
8.2441998783377637e-15
0
LINE
5
152
100
AcDbEntity
8
0
100
AcDbLine
10
82.959930879800439
20
-321.49103584049834
30
4.9610091626410699e-15
11
64.93625608824135
21
-335.42153136306558
31
9.7491181043510748e-15
0
LINE
5
153
100
AcDbEntity
8
0
100
AcDbLine
10
100.98360567135953
20
-335.4215313630657
30
6.4700729557753131e-15
11
82.959930879800439
21
-321.49103584049834
31
4.9610091626410699e-15
0
LINE
5
154
100
AcDbEntity
8
0
100
AcDbLine
10
112.30434007079802
20
-315.65406993895965
30
9.7082392937828218e-15
11
100.98360567135953
21
-335.4215313630657
31
6.4700729557753131e-15
0
LINE
5
155
100
AcDbEntity
8
0
100
AcDbLine
10
134.28701415248159
20
-321.6268078969336
30
1.0991707371230657e-14
11
112.30434007079802
21
-315.65406993895965
31
9.7082392937828218e-15
0
LINE
5
156
100
AcDbEntity
8
0
100
AcDbLine
10
137.18132897019788
20
-299.03179738062505
30
2.4552386400017594e-15
11
134.28701415248159
21
-321.6268078969336
31
1.0991707371230657e-14
0
LINE
5
157
100
AcDbEntity
8
0
100
AcDbLine
10
159.77633948650646
20
-296.1374825629087
30
3.3177146216388514e-15
11
137.18132897019788
21
-299.03179738062505
31
2.4552386400017594e-15
0
LINE
5
158
100
AcDbEntity
8
0
100
AcDbLine
10
153.80360152853245
20
-274.15480848122502
30
1.9968524817322672e-15
11
159.77633948650646
21
-296.1374825629087
31
3.3177146216388514e-15
0
LINE
5
159
100
AcDbEntity
8
0
100
AcDbLine
10
173.57106295263839
20
-262.8340740817863
30
2.3070322177186103e-15
11
153.80360152853245
21
-274.15480848122502
31
1.9968524817322672e-15
0
LINE
5
160
100
AcDbEntity
8
0
100
AcDbLine
10
159.64056743007117
20
-244.81039929022717
30
8.2338445649875988e-15
11
173.57106295263839
21
-262.8340740817863
31
2.3070322177186103e-15
0
LINE
5
161
100
AcDbEntity
8
0
100
AcDbLine
10
173.57106295263833
20
-226.78672449866806
30
7.9445060023055802e-15
11
159.64056743007117
21
-244.81039929022717
31
8.2338445649875988e-15
0
LINE
5
162
100
AcDbEntity
8
0
100
AcDbLine
10
153.80360152853234
20
-215.46599009922946
30
3.2982279460756548e-15
11
173.57106295263833
21
-226.78672449866806
31
7.9445060023055802e-15
0
LINE
5
163
100
AcDbEntity
8
0
100
AcDbLine
10
159.77633948650637
20
-193.48331601754575
30
2.4534202580330076e-15
11
153.80360152853234
21
-215.46599009922946
31
3.2982279460756548e-15
0
LINE
5
164
100
AcDbEntity
8
0
100
AcDbLine
10
137.1813289701978
20
-190.58900119982934
30
-2.9116942211358814e-15
11
159.77633948650637
21
-193.48331601754575
31
2.4534202580330076e-15
0
LINE
5
165
100
AcDbEntity
8
0
100
AcDbLine
10
134.28701415248142
20
-167.99399068352068
30
-4.1833567222354228e-15
11
137.1813289701978
21
-190.58900119982934
31
-2.9116942211358814e-15
0
LINE
5
166
100
AcDbEntity
8
0
100
AcDbLine
10
117.52535711743727
20
-172.54816752477979
30
1.2355545146644098e-15
11
134.28701415248142
21
-167.99399068352068
31
-4.1833567222354228e-15
0
ARC
5
167
100
AcDbEntity
8
0
100
AcDbCircle
10
115.68998204422464
20
-165.79306587190808
30
1.1102230246251565e-15
40
7.0000000000000204
210
-8.4232014416538509e-16
220
-4.8239287922750116e-16
230
1
100
AcDbArc
50
209.7995689295422
51
285.20043107045746
0
LINE
5
168
100
AcDbEntity
8
0
100
AcDbLine
10
100.98360567135927
20
-154.19926721738864
30
-1.9777319137554488e-15
11
109.61559769758517
21
-169.27183789796868
31
-5.6844881277796143e-15
0
LINE
5
169
100
AcDbEntity
8
0
100
AcDbLine
10
82.959930879800226
20
-168.12976273995591
30
-6.0712321872662264e-15
11
100.98360567135927
21
-154.19926721738864
31
-1.9777319137554488e-15
0
LINE
5
170
100
AcDbEntity
8
0
100
AcDbLine
10
64.936256088241151
20
-154.19926721738861
30
-7.5802959804004696e-15
11
82.959930879800226
21
-168.12976273995591
31
-6.0712321872662264e-15
0
LINE
5
171
100
AcDbEntity
8
0
100
AcDbLine
10
53.615521688802659
20
-173.96672864149468
30
-1.9366781214067205e-15
11
64.936256088241151
21
-154.19926721738861
31
-7.5802959804004696e-15
0
LINE
5
172
100
AcDbEntity
8
0
100
AcDbLine
10
31.632847607119068
20
-167.99399068352059
30
-3.2201461988545566e-15
11
53.615521688802659
21
-173.96672864149468
31
-1.9366781214067205e-15
0
LINE
5
173
100
AcDbEntity
8
0
100
AcDbLine
10
28.738532789402758
20
-190.58900119982923
30
-3.5654616646269152e-15
11
31.632847607119068
21
-167.99399068352059
31
-3.2201461988545566e-15
0
LINE
5
174
100
AcDbEntity
8
0
100
AcDbLine
10
6.1435222730942041
20
-193.48331601754558
30
-4.427937646264008e-15
11
28.738532789402758
21
-190.58900119982923
31
-3.5654616646269152e-15
0
LINE
5
175
100
AcDbEntity
8
0
100
AcDbLine
10
12.116260231068168
20
-215.46599009922932
30
-3.1070755063574245e-15
11
6.1435222730942041
21
-193.48331601754558
31
-4.427937646264008e-15
0
LINE
5
176
100
AcDbEntity
8
0
100
AcDbLine
10
-7.6512011930377888
20
-226.78672449866787
30
-3.4172552423437672e-15
11
12.116260231068168
21
-215.46599009922932
31
-3.1070755063574245e-15
0
LINE
5
177
100
AcDbEntity
8
0
100
AcDbLine
10
6.2792943295294457
20
-244.81039929022705
30
-4.6228339261150319e-16
11
-7.6512011930377888
21
-226.78672449866787
31
-3.4172552423437672e-15
0
LINE
5
178
100
AcDbEntity
8
0
100
AcDbLine
10
-7.6512011930377177
20
-262.83407408178624
30
-1.7294482992948409e-16
11
6.2792943295294457
21
-244.81039929022705
31
-4.6228339261150319e-16
0
LWPOLYLINE
5
179
100
AcDbEntity
8
0
100
AcDbPolyline
90
49
70
1
43
0.0
10
-175.72993195868307
20
-303.5002621287108
10
-197.9089235929986
20
-300.65923737756617
42
-0.45520394892930127
10
-199.58483834471238
20
-298.1510537024152
10
-193.72207031863644
20
-276.57312417652969
10
-213.12557363811743
20
-265.4608269125726
42
-0.45520394892930149
10
-213.71407663765069
20
-262.50222254178459
10
-200.04006912019969
20
-244.81039929022705
10
-213.71407663765072
20
-227.11857603866952
42
-0.45520394892930116
10
-213.12557363811749
20
-224.15997166788148
10
-193.72207031863653
20
-213.04767440392447
10
-199.58483834471247
20
-191.46974487803899
42
-0.45520394892930266
10
-197.90892359299872
20
-188.96156120288799
10
-175.72993195868318
20
-186.12053645174336
10
-172.88890720753864
20
-163.94154481742771
42
-0.45520394892929988
10
-170.38072353238761
20
-162.26563006571388
10
-148.80279400650221
20
-168.12839809178996
10
-137.69049674254524
20
-148.72489477230883
42
-0.45520394892929844
10
-134.7318923717572
20
-148.13639177277562
10
-117.04006912019977
20
-161.81039929022674
10
-99.348245868642351
20
-148.13639177277562
42
-0.45520394892929517
10
-96.389641497854342
20
-148.72489477230889
10
-86.045556340529501
20
-166.78700073649682
42
0.34140605711067185
10
-83.785625077714627
20
-167.72309491558573
10
-63.699414708011936
20
-162.26563006571405
42
-0.45520394892930127
10
-61.191231032860998
20
-163.94154481742777
10
-58.350206281716304
20
-186.12053645174345
10
-36.171214647400745
20
-188.96156120288811
42
-0.45520394892930127
10
-34.495299895686969
20
-191.46974487803908
10
-40.358067921762952
20
-213.04767440392459
10
-20.954564602281902
20
-224.15997166788162
42
-0.45520394892929844
10
-20.36606160274868
20
-227.11857603866969
10
-34.040069120199675
20
-244.81039929022717
10
-20.366061602748609
20
-262.5022225417847
42
-0.45520394892930083
10
-20.954564602281867
20
-265.46082691257271
10
-40.358067921762867
20
-276.5731241765298
10
-34.495299895686841
20
-298.15105370241531
42
-0.45520394892929678
10
-36.171214647400646
20
-300.65923737756628
10
-58.350206281716197
20
-303.50026212871092
10
-61.191231032860792
20
-325.67925376302651
42
-0.45520394892930799
10
-63.69941470801173
20
-327.35516851474028
10
-85.277344233897139
20
-321.49240048866432
10
-96.389641497854115
20
-340.89590380814542
42
-0.45520394892930149
10
-99.348245868642124
20
-341.48440680767868
10
-117.04006912019956
20
-327.81039929022756
10
-134.731892371757
20
-341.48440680767862
42
-0.45520394892930149
10
-137.69049674254501
20
-340.89590380814536
10
-148.80279400650204
20
-321.49240048866432
10
-170.38072353238746
20
-327.35516851474017
42
-0.45520394892929456
10
-172.88890720753841
20
-325.67925376302645
0
LINE
5
180
100
AcDbEntity
8
0
100
AcDbLine
10
-146.3844783111972
20
-315.65406993895965
30
8.2441998783377637e-15
11
-168.36715239288083
21
-321.62680789693354
31
2.9333932137571827e-15
0
LINE
5
181
100
AcDbEntity
8
0
100
AcDbLine
10
-135.06374391175865
20
-335.42153136306558
30
9.7491181043510748e-15
11
-146.3844783111972
21
-315.65406993895965
31
8.2441998783377637e-15
0
ARC
5
182
100
AcDbEntity
8
0
100
AcDbCircle
10
-84.310017955775365
20
-165.79306587190808
30
1.1102230246251565e-15
40
7.0000000000000355
210
-8.4232014416538331e-16
220
-4.8239287922750018e-16
230
1
100
AcDbArc
50
209.79956892954215
51
285.20043107045734
0
LINE
5
183
100
AcDbEntity
8
0
100
AcDbLine
10
-168.36715239288094
20
-167.99399068352059
30
-3.2201461988545566e-15
11
-146.38447831119734
21
-173.96672864149468
31
-1.9366781214067205e-15
0
LINE
5
184
100
AcDbEntity
8
0
100
AcDbLine
10
-117.04006912019956
20
-321.49103584049834
30
4.9610091626410699e-15
11
-135.06374391175865
21
-335.42153136306558
31
9.7491181043510748e-15
0
LINE
5
185
100
AcDbEntity
8
0
100
AcDbLine
10
-65.712985847518581
20
-167.99399068352068
30
-4.1833567222354228e-15
11
-62.818671029802218
21
-190.58900119982934
31
-2.9116942211358814e-15
0
LINE
5
186
100
AcDbEntity
8
0
100
AcDbLine
10
-207.65120119303774
20
-262.83407408178624
30
-1.7294482992948409e-16
11
-193.72070567047052
21
-244.81039929022705
31
-4.6228339261150319e-16
0
LINE
5
187
100
AcDbEntity
8
0
100
AcDbLine
10
-99.016394328640729
20
-154.19926721738864
30
-1.9777319137554488e-15
11
-90.384402302414841
21
-169.27183789796868
31
-5.6844881277796143e-15
0
LINE
5
188
100
AcDbEntity
8
0
100
AcDbLine
10
-193.85647772690578
20
-193.48331601754558
30
-4.427937646264008e-15
11
-171.26146721059726
21
-190.58900119982923
31
-3.5654616646269152e-15
0
LINE
5
189
100
AcDbEntity
8
0
100
AcDbLine
10
-62.818671029802111
20
-299.03179738062505
30
2.4552386400017594e-15
11
-65.712985847518411
21
-321.6268078969336
31
1.0991707371230657e-14
0
LINE
5
190
100
AcDbEntity
8
0
100
AcDbLine
10
-146.38447831119734
20
-173.96672864149468
30
-1.9366781214067205e-15
11
-135.06374391175885
21
-154.19926721738861
31
-7.5802959804004696e-15
0
LINE
5
191
100
AcDbEntity
8
0
100
AcDbLine
10
-82.474642882562748
20
-172.54816752477979
30
1.2355545146644098e-15
11
-65.712985847518581
21
-167.99399068352068
31
-4.1833567222354228e-15
0
LINE
5
192
100
AcDbEntity
8
0
100
AcDbLine
10
-40.22366051349362
20
-193.48331601754575
30
2.4534202580330076e-15
11
-46.196398471467646
21
-215.46599009922946
31
3.2982279460756548e-15
0
LINE
5
193
100
AcDbEntity
8
0
100
AcDbLine
10
-62.818671029802218
20
-190.58900119982934
30
-2.9116942211358814e-15
11
-40.22366051349362
21
-193.48331601754575
31
2.4534202580330076e-15
0
LINE
5
194
100
AcDbEntity
8
0
100
AcDbLine
10
-65.712985847518411
20
-321.6268078969336
30
1.0991707371230657e-14
11
-87.695659929201994
21
-315.65406993895965
31
9.7082392937828218e-15
0
LINE
5
195
100
AcDbEntity
8
0
100
AcDbLine
10
-26.428937047361583
20
-262.8340740817863
30
2.3070322177186103e-15
11
-46.19639847146756
21
-274.15480848122502
31
1.9968524817322672e-15
0
LINE
5
196
100
AcDbEntity
8
0
100
AcDbLine
10
-46.196398471467646
20
-215.46599009922946
30
3.2982279460756548e-15
11
-26.428937047361654
21
-226.78672449866806
31
7.9445060023055802e-15
0
LINE
5
197
100
AcDbEntity
8
0
100
AcDbLine
10
-193.72070567047052
20
-244.81039929022705
30
-4.6228339261150319e-16
11
-207.65120119303782
21
-226.78672449866787
31
-3.4172552423437672e-15
0
LINE
5
198
100
AcDbEntity
8
0
100
AcDbLine
10
-207.65120119303782
20
-226.78672449866787
30
-3.4172552423437672e-15
11
-187.88373976893183
21
-215.46599009922932
31
-3.1070755063574245e-15
0
LINE
5
199
100
AcDbEntity
8
0
100
AcDbLine
10
-187.88373976893183
20
-215.46599009922932
30
-3.1070755063574245e-15
11
-193.85647772690578
21
-193.48331601754558
31
-4.427937646264008e-15
0
LINE
5
200
100
AcDbEntity
8
0
100
AcDbLine
10
-168.36715239288083
20
-321.62680789693354
30
2.9333932137571827e-15
11
-170.77045496595761
21
-302.86497639880116
31
1.1102230246251565e-15
0
LINE
5
201
100
AcDbEntity
8
0
100
AcDbLine
10
-99.016394328640473
20
-335.4215313630657
30
6.4700729557753131e-15
11
-117.04006912019956
21
-321.49103584049834
31
4.9610091626410699e-15
0
LINE
5
202
100
AcDbEntity
8
0
100
AcDbLine
10
-46.19639847146756
20
-274.15480848122502
30
1.9968524817322672e-15
11
-40.223660513493527
21
-296.1374825629087
31
3.3177146216388514e-15
0
LINE
5
203
100
AcDbEntity
8
0
100
AcDbLine
10
-117.04006912019977
20
-168.12976273995591
30
-6.0712321872662264e-15
11
-99.016394328640729
21
-154.19926721738864
31
-1.9777319137554488e-15
0
LINE
5
204
100
AcDbEntity
8
0
100
AcDbLine
10
-171.26146721059726
20
-190.58900119982923
30
-3.5654616646269152e-15
11
-168.36715239288094
21
-167.99399068352059
31
-3.2201461988545566e-15
0
LINE
5
205
100
AcDbEntity
8
0
100
AcDbLine
10
-87.695659929201994
20
-315.65406993895965
30
9.7082392937828218e-15
11
-99.016394328640473
21
-335.4215313630657
31
6.4700729557753131e-15
0
LINE
5
206
100
AcDbEntity
8
0
100
AcDbLine
10
-40.223660513493527
20
-296.1374825629087
30
3.3177146216388514e-15
11
-62.818671029802111
21
-299.03179738062505
31
2.4552386400017594e-15
0
LINE
5
207
100
AcDbEntity
8
0
100
AcDbLine
10
-26.428937047361654
20
-226.78672449866806
30
7.9445060023055802e-15
11
-40.359432569928813
21
-244.81039929022717
31
8.2338445649875988e-15
0
LINE
5
208
100
AcDbEntity
8
0
100
AcDbLine
10
-175.72993195868307
20
-303.5002621287108
30
1.1102230246251565e-15
11
-197.9089235929986
21
-300.65923737756611
31
7.3585210947103694e-17
0
LINE
5
209
100
AcDbEntity
8
0
100
AcDbLine
10
-135.06374391175885
20
-154.19926721738861
30
-7.5802959804004696e-15
11
-117.04006912019977
21
-168.12976273995591
31
-6.0712321872662264e-15
0
LINE
5
210
100
AcDbEntity
8
0
100
AcDbLine
10
-40.359432569928813
20
-244.81039929022717
30
8.2338445649875988e-15
11
-26.428937047361583
21
-262.8340740817863
31
2.3070322177186103e-15
0
LINE
5
211
100
AcDbEntity
8
0
100
AcDbLine
10
-259.8186710298022
20
-190.58900119982934
30
-2.9116942211358814e-15
11
-237.22366051349366
21
-193.48331601754575
31
2.4534202580330076e-15
0
LWPOLYLINE
5
212
100
AcDbEntity
8
0
100
AcDbPolyline
90
49
70
1
43
0.0
10
-345.80279400650227
20
-168.12839809178996
10
-334.69049674254518
20
-148.72489477230889
42
-0.45520394892929683
10
-331.73189237175723
20
-148.13639177277562
10
-314.0400691201998
20
-161.81039929022674
10
-296.34824586864238
20
-148.13639177277562
42
-0.45520394892929517
10
-293.38964149785443
20
-148.72489477230889
10
-283.04555634052946
20
-166.78700073649682
42
0.34140605711066224
10
-280.78562507771466
20
-167.72309491558573
10
-260.699414708012
20
-162.26563006571408
42
-0.45520394892930577
10
-258.19123103286103
20
-163.94154481742777
10
-255.35020628171637
20
-186.12053645174345
10
-233.17121464740072
20
-188.96156120288808
42
-0.45520394892929456
10
-231.49529989568694
20
-191.46974487803908
10
-237.35806792176294
20
-213.04767440392459
10
-217.95456460228192
20
-224.15997166788162
42
-0.45520394892929383
10
-217.36606160274872
20
-227.11857603866969
10
-231.04006912019966
20
-244.81039929022717
10
-217.3660616027486
20
-262.5022225417847
42
-0.45520394892930804
10
-217.95456460228183
20
-265.46082691257271
10
-237.35806792176288
20
-276.5731241765298
10
-231.49529989568686
20
-298.15105370241531
42
-0.45520394892930349
10
-233.17121464740066
20
-300.65923737756628
10
-255.35020628171623
20
-303.50026212871092
10
-258.19123103286086
20
-325.67925376302645
42
-0.4552039489292945
10
-260.69941470801166
20
-327.35516851474028
10
-282.27734423389722
20
-321.49240048866432
10
-293.38964149785409
20
-340.89590380814542
42
-0.45520394892930149
10
-296.34824586864215
20
-341.48440680767868
10
-314.04006912019952
20
-327.81039929022756
10
-331.73189237175706
20
-341.48440680767862
42
-0.45520394892930149
10
-334.69049674254506
20
-340.89590380814536
10
-345.80279400650198
20
-321.49240048866432
10
-367.38072353238749
20
-327.35516851474011
42
-0.45520394892929905
10
-369.88890720753841
20
-325.67925376302645
10
-372.7299319586831
20
-303.5002621287108
10
-394.90892359299863
20
-300.65923737756611
42
-0.45520394892930799
10
-396.58483834471241
20
-298.1510537024152
10
-390.72207031863638
20
-276.57312417652969
10
-410.12557363811737
20
-265.46082691257266
42
-0.45520394892931076
10
-410.71407663765069
20
-262.50222254178459
10
-397.04006912019963
20
-244.81039929022705
10
-410.71407663765069
20
-227.11857603866952
42
-0.45520394892929644
10
-410.12557363811754
20
-224.15997166788148
10
-390.72207031863655
20
-213.04767440392447
10
-396.58483834471241
20
-191.46974487803899
42
-0.45520394892928673
10
-394.9089235929988
20
-188.96156120288799
10
-372.72993195868321
20
-186.12053645174336
10
-369.88890720753864
20
-163.94154481742771
42
-0.45520394892930438
10
-367.38072353238761
20
-162.26563006571388
0
LINE
5
213
100
AcDbEntity
8
0
100
AcDbLine
10
-365.367152392881
20
-167.99399068352059
30
-3.2201461988545566e-15
11
-343.38447831119737
21
-173.96672864149468
31
-1.9366781214067205e-15
0
LINE
5
214
100
AcDbEntity
8
0
100
AcDbLine
10
-314.04006912019952
20
-321.49103584049834
30
4.9610091626410699e-15
11
-332.06374391175871
21
-335.42153136306558
31
9.7491181043510748e-15
0
LINE
5
215
100
AcDbEntity
8
0
100
AcDbLine
10
-243.19639847146757
20
-274.15480848122502
30
1.9968524817322672e-15
11
-237.22366051349351
21
-296.1374825629087
31
3.3177146216388514e-15
0
LINE
5
216
100
AcDbEntity
8
0
100
AcDbLine
10
-368.26146721059729
20
-190.58900119982923
30
-3.5654616646269152e-15
11
-365.367152392881
21
-167.99399068352059
31
-3.2201461988545566e-15
0
LINE
5
217
100
AcDbEntity
8
0
100
AcDbLine
10
-223.42893704736167
20
-226.78672449866806
30
7.9445060023055802e-15
11
-237.3594325699288
21
-244.81039929022717
31
8.2338445649875988e-15
0
LINE
5
218
100
AcDbEntity
8
0
100
AcDbLine
10
-404.65120119303776
20
-262.83407408178624
30
-1.7294482992948409e-16
11
-390.72070567047047
21
-244.81039929022705
31
-4.6228339261150319e-16
0
LINE
5
219
100
AcDbEntity
8
0
100
AcDbLine
10
-332.06374391175882
20
-154.19926721738861
30
-7.5802959804004696e-15
11
-314.0400691201998
21
-168.12976273995591
31
-6.0712321872662264e-15
0
LINE
5
220
100
AcDbEntity
8
0
100
AcDbLine
10
-237.22366051349351
20
-296.1374825629087
30
3.3177146216388514e-15
11
-259.8186710298022
21
-299.03179738062505
31
2.4552386400017594e-15
0
LINE
5
221
100
AcDbEntity
8
0
100
AcDbLine
10
-296.01639432864044
20
-335.4215313630657
30
6.4700729557753131e-15
11
-314.04006912019952
21
-321.49103584049834
31
4.9610091626410699e-15
0
LINE
5
222
100
AcDbEntity
8
0
100
AcDbLine
10
-390.85647772690578
20
-193.48331601754558
30
-4.427937646264008e-15
11
-368.26146721059729
21
-190.58900119982923
31
-3.5654616646269152e-15
0
LINE
5
223
100
AcDbEntity
8
0
100
AcDbLine
10
-284.69565992920195
20
-315.65406993895965
30
9.7082392937828218e-15
11
-296.01639432864044
21
-335.4215313630657
31
6.4700729557753131e-15
0
LINE
5
224
100
AcDbEntity
8
0
100
AcDbLine
10
-372.7299319586831
20
-303.5002621287108
30
1.1102230246251565e-15
11
-394.90892359299863
21
-300.65923737756611
31
7.3585210947103694e-17
0
LINE
5
225
100
AcDbEntity
8
0
100
AcDbLine
10
-314.0400691201998
20
-168.12976273995591
30
-6.0712321872662264e-15
11
-296.01639432864079
21
-154.19926721738864
31
-1.9777319137554488e-15
0
LINE
5
226
100
AcDbEntity
8
0
100
AcDbLine
10
-259.8186710298022
20
-299.03179738062505
30
2.4552386400017594e-15
11
-262.71298584751844
21
-321.6268078969336
31
1.0991707371230657e-14
0
LINE
5
227
100
AcDbEntity
8
0
100
AcDbLine
10
-365.36715239288083
20
-321.62680789693354
30
2.9333932137571827e-15
11
-367.77045496595758
21
-302.86497639880116
31
1.1102230246251565e-15
0
LINE
5
228
100
AcDbEntity
8
0
100
AcDbLine
10
-343.3844783111972
20
-315.65406993895965
30
8.2441998783377637e-15
11
-365.36715239288083
21
-321.62680789693354
31
2.9333932137571827e-15
0
LINE
5
229
100
AcDbEntity
8
0
100
AcDbLine
10
-384.88373976893183
20
-215.46599009922932
30
-3.1070755063574245e-15
11
-390.85647772690578
21
-193.48331601754558
31
-4.427937646264008e-15
0
LINE
5
230
100
AcDbEntity
8
0
100
AcDbLine
10
-262.71298584751861
20
-167.99399068352068
30
-4.1833567222354228e-15
11
-259.8186710298022
21
-190.58900119982934
31
-2.9116942211358814e-15
0
LINE
5
231
100
AcDbEntity
8
0
100
AcDbLine
10
-243.19639847146763
20
-215.46599009922946
30
3.2982279460756548e-15
11
-223.42893704736167
21
-226.78672449866806
31
7.9445060023055802e-15
0
LINE
5
232
100
AcDbEntity
8
0
100
AcDbLine
10
-223.42893704736159
20
-262.8340740817863
30
2.3070322177186103e-15
11
-243.19639847146757
21
-274.15480848122502
31
1.9968524817322672e-15
0
LINE
5
233
100
AcDbEntity
8
0
100
AcDbLine
10
-332.06374391175871
20
-335.42153136306558
30
9.7491181043510748e-15
11
-343.3844783111972
21
-315.65406993895965
31
8.2441998783377637e-15
0
ARC
5
234
100
AcDbEntity
8
0
100
AcDbCircle
10
-281.31001795577532
20
-165.79306587190808
30
1.1102230246251565e-15
40
7.0000000000000355
210
-8.4232014416538331e-16
220
-4.8239287922750018e-16
230
1
100
AcDbArc
50
209.79956892954215
51
285.20043107045734
0
LINE
5
235
100
AcDbEntity
8
0
100
AcDbLine
10
-390.72070567047047
20
-244.81039929022705
30
-4.6228339261150319e-16
11
-404.65120119303776
21
-226.78672449866787
31
-3.4172552423437672e-15
0
LINE
5
236
100
AcDbEntity
8
0
100
AcDbLine
10
-237.3594325699288
20
-244.81039929022717
30
8.2338445649875988e-15
11
-223.42893704736159
21
-262.8340740817863
31
2.3070322177186103e-15
0
LINE
5
237
100
AcDbEntity
8
0
100
AcDbLine
10
-262.71298584751844
20
-321.6268078969336
30
1.0991707371230657e-14
11
-284.69565992920195
21
-315.65406993895965
31
9.7082392937828218e-15
0
LINE
5
238
100
AcDbEntity
8
0
100
AcDbLine
10
-296.01639432864079
20
-154.19926721738864
30
-1.9777319137554488e-15
11
-287.3844023024148
21
-169.27183789796868
31
-5.6844881277796143e-15
0
LINE
5
239
100
AcDbEntity
8
0
100
AcDbLine
10
-404.65120119303776
20
-226.78672449866787
30
-3.4172552423437672e-15
11
-384.88373976893183
21
-215.46599009922932
31
-3.1070755063574245e-15
0
LINE
5
240
100
AcDbEntity
8
0
100
AcDbLine
10
-343.38447831119737
20
-173.96672864149468
30
-1.9366781214067205e-15
11
-332.06374391175882
21
-154.19926721738861
31
-7.5802959804004696e-15
0
LINE
5
241
100
AcDbEntity
8
0
100
AcDbLine
10
-237.22366051349366
20
-193.48331601754575
30
2.4534202580330076e-15
11
-243.19639847146763
21
-215.46599009922946
31
3.2982279460756548e-15
0
LINE
5
242
100
AcDbEntity
8
0
100
AcDbLine
10
-279.4746428825627
20
-172.54816752477979
30
1.2355545146644098e-15
11
-262.71298584751861
21
-167.99399068352068
31
-4.1833567222354228e-15
0
LWPOLYLINE
5
243
100
AcDbEntity
8
0
100
AcDbPolyline
90
49
70
1
43
0.0
10
379.63393839725131
20
-262.50222254178459
10
365.95993087980025
20
-244.81039929022711
10
379.63393839725131
20
-227.1185760386696
42
0.45520394892930577
10
379.04543539771799
20
-224.15997166788156
10
359.64193207823706
20
-213.0476744039245
10
365.50470010431297
20
-191.46974487803902
42
0.45520394892930799
10
363.8287853525992
20
-188.96156120288808
10
341.64979371828366
20
-186.12053645174339
10
338.80876896713903
20
-163.94154481742771
42
0.45520394892929678
10
336.30058529198806
20
-162.26563006571394
10
316.2143749222854
20
-167.72309491558565
42
-0.34140605711067795
10
313.95444365947048
20
-166.78700073649679
10
303.61035850214563
20
-148.72489477230883
42
0.45520394892929683
10
300.65175413135762
20
-148.1363917727756
10
282.95993087980025
20
-161.81039929022666
10
265.26810762824277
20
-148.1363917727756
42
0.45520394892930083
10
262.30950325745476
20
-148.72489477230883
10
251.19720599349779
20
-168.1283980917899
10
229.61927646761239
20
-162.26563006571385
42
0.45520394892929611
10
227.11109279246148
20
-163.94154481742763
10
224.27006804131685
20
-186.12053645174328
10
202.09107640700131
20
-188.96156120288794
42
0.45520394892929678
10
200.41516165528753
20
-191.46974487803888
10
206.2779296813635
20
-213.04767440392439
10
186.87442636188257
20
-224.15997166788142
42
0.45520394892930149
10
186.28592336234931
20
-227.11857603866943
10
199.95993087980037
20
-244.810399290227
10
186.28592336234934
20
-262.50222254178448
42
0.45520394892930749
10
186.87442636188257
20
-265.46082691257254
10
206.27792968136359
20
-276.57312417652957
10
200.41516165528765
20
-298.15105370241508
42
0.45520394892930194
10
202.09107640700142
20
-300.65923737756606
10
224.27006804131696
20
-303.50026212871069
10
227.11109279246162
20
-325.67925376302634
42
0.45520394892928939
10
229.61927646761254
20
-327.35516851474011
10
251.19720599349793
20
-321.4924004886642
10
262.30950325745499
20
-340.89590380814525
42
0.45520394892929222
10
265.268107628243
20
-341.48440680767851
10
282.95993087980042
20
-327.81039929022739
10
300.6517541313579
20
-341.48440680767857
42
0.45520394892928295
10
303.61035850214586
20
-340.89590380814525
10
314.72265576610289
20
-321.4924004886642
10
336.30058529198828
20
-327.35516851474023
42
0.45520394892930066
10
338.8087689671392
20
-325.6792537630264
10
341.64979371828383
20
-303.5002621287108
10
363.82878535259931
20
-300.65923737756611
42
0.45520394892930349
10
365.50470010431309
20
-298.1510537024152
10
359.64193207823712
20
-276.57312417652969
10
379.04543539771805
20
-265.46082691257266
42
0.45520394892931071
0
LWPOLYLINE
5
244
100
AcDbEntity
8
0
100
AcDbPolyline
90
3
70
1
43
0.0
10
336.82497817004901
20
-325.42513947106261
10
317.64733892369685
20
-320.21453527225589
42
0.079111125454493045
10
339.34997241020761
20
-305.71329918997725
0
LWPOLYLINE
5
245
100
AcDbEntity
8
0
100
AcDbPolyline
90
3
70
1
43
0.0
10
363.57467106063541
20
-190.94535199997824
10
358.36406686182869
20
-210.1229912463306
42
0.079111125454494224
10
343.86283077955005
20
-188.42035775981958
0
LWPOLYLINE
5
246
100
AcDbEntity
8
0
100
AcDbPolyline
90
3
70
1
43
0.0
10
311.75100531258136
20
-322.65687662225616
10
301.87482011739178
20
-339.90196894355648
10
286.15100363529712
20
-327.74903356080807
42
0.079111125454493128
0
LWPOLYLINE
5
247
100
AcDbEntity
8
0
100
AcDbPolyline
90
3
70
1
43
0.0
10
360.80640821182902
20
-216.01932485744598
10
378.05150053312929
20
-225.8955100526357
10
365.89856515038093
20
-241.61932653473048
42
0.079111125454494224
0
LWPOLYLINE
5
248
100
AcDbEntity
8
0
100
AcDbPolyline
90
3
70
1
43
0.0
10
254.16885644701952
20
-322.65687662225616
42
0.079111125454493045
10
279.76885812430385
20
-327.74903356080807
10
264.04504164220913
20
-339.90196894355648
0
LWPOLYLINE
5
249
100
AcDbEntity
8
0
100
AcDbPolyline
90
3
70
1
43
0.0
10
317.64733892369668
20
-169.40626330819833
10
336.82497817004878
20
-164.19565910939156
10
339.34997241020744
20
-183.90749939047697
42
0.079111125454493419
0
LWPOLYLINE
5
250
100
AcDbEntity
8
0
100
AcDbPolyline
90
3
70
1
43
0.0
10
226.56988934939312
20
-305.71329918997714
42
0.079111125454493308
10
248.27252283590394
20
-320.21453527225572
10
229.09488358955178
20
-325.42513947106244
0
LWPOLYLINE
5
251
100
AcDbEntity
8
0
100
AcDbPolyline
90
3
70
1
43
0.0
10
286.15100363529683
20
-161.87176501964601
10
301.87482011739149
20
-149.7188296368976
10
311.75100531258113
20
-166.96392195819789
42
0.079111125454493225
0
LWPOLYLINE
5
252
100
AcDbEntity
8
0
100
AcDbPolyline
90
3
70
1
43
0.0
10
365.89856515038093
20
-248.00147204572374
10
378.05150053312934
20
-263.72528852781846
10
360.80640821182908
20
-273.60147372300816
42
0.079111125454493864
0
CIRCLE
5
253
100
AcDbEntity
8
0
100
AcDbCircle
10
317.95993087980031
20
-274.81039929022722
30
4.4408920985006262e-15
40
10.000000000000052
210
-3.9806851659957608e-17
220
5.412201483336716e-17
230
1
0
LWPOLYLINE
5
254
100
AcDbEntity
8
0
100
AcDbPolyline
90
3
70
1
43
0.0
10
264.0450416422089
20
-149.71882963689757
10
279.76885812430356
20
-161.87176501964601
42
0.079111125454493128
10
254.16885644701927
20
-166.96392195819786
0
LWPOLYLINE
5
255
100
AcDbEntity
8
0
100
AcDbPolyline
90
3
70
1
43
0.0
10
222.05703098005043
20
-188.42035775981952
42
0.079111125454493225
10
207.55579489777193
20
-210.12299124633032
10
202.34519069896518
20
-190.94535199997813
0
CIRCLE
5
256
100
AcDbEntity
8
0
100
AcDbCircle
10
247.95993087980037
20
-274.81039929022711
30
1.1102230246251565e-15
40
10.000000000000052
210
-3.9806851659957608e-17
220
5.412201483336716e-17
230
1
0
LWPOLYLINE
5
257
100
AcDbEntity
8
0
100
AcDbPolyline
90
3
70
1
43
0.0
10
187.86836122647131
20
-263.72528852781835
10
200.02129660921966
20
-248.00147204572363
42
0.079111125454494224
10
205.11345354777154
20
-273.60147372300804
0
LWPOLYLINE
5
258
100
AcDbEntity
8
0
100
AcDbPolyline
90
3
70
1
43
0.0
10
202.34519069896527
20
-298.67544658047586
10
207.5557948977719
20
-279.49780733412354
42
0.079111125454493947
10
222.05703098005051
20
-301.20044082063447
0
CIRCLE
5
259
100
AcDbEntity
8
0
100
AcDbCircle
10
249.95993038806205
20
-271.8104001395933
30
1.1102230246251565e-15
40
1.0000000149011663
210
-3.9806851659957608e-17
220
5.412201483336716e-17
230
1
0
LWPOLYLINE
5
260
100
AcDbEntity
8
0
100
AcDbPolyline
90
3
70
1
43
0.0
10
226.56988934939307
20
-183.90749939047683
10
229.09488358955167
20
-164.1956591093915
10
248.27252283590383
20
-169.40626330819825
42
0.079111125454493045
0
LWPOLYLINE
5
261
100
AcDbEntity
8
0
100
AcDbPolyline
90
3
70
1
43
0.0
10
363.57467106063552
20
-298.67544658047592
10
343.86283077955022
20
-301.20044082063458
42
0.079111125454493503
10
358.36406686182875
20
-279.49780733412365
0
LWPOLYLINE
5
262
100
AcDbEntity
8
0
100
AcDbPolyline
90
3
70
1
43
0.0
10
187.86836122647131
20
-225.89551005263556
10
205.11345354777151
20
-216.01932485744595
42
0.079111125454493864
10
200.02129660921975
20
-241.61932653473033
0
CIRCLE
5
263
100
AcDbEntity
8
0
100
AcDbCircle
10
320.95993144604449
20
-271.81040013959341
30
4.4408920985006262e-15
40
1.4142135834465268
210
-3.9806851659957608e-17
220
5.412201483336716e-17
230
1
0
CIRCLE
5
264
100
AcDbEntity
8
0
100
AcDbCircle
10
282.95993087980031
20
-214.81039929022694
30
0
40
4.0000000596046652
210
-3.9806851659957608e-17
220
5.412201483336716e-17
230
1
0
LWPOLYLINE
5
265
100
AcDbEntity
8
0
100
AcDbPolyline
90
33
70
1
43
0.0
10
28.738532789402839
20
-299.03179738062488
10
6.1435222730942929
20
-296.13748256290853
10
12.116260231068248
20
-274.15480848122479
10
-7.6512011930377177
20
-262.83407408178624
10
6.2792943295294457
20
-244.81039929022705
10
-7.6512011930377888
20
-226.78672449866787
10
12.116260231068168
20
-215.46599009922932
10
6.1435222730942041
20
-193.48331601754558
10
28.738532789402758
20
-190.58900119982923
10
31.632847607119068
20
-167.99399068352059
10
53.615521688802659
20
-173.96672864149468
10
64.936256088241151
20
-154.19926721738861
10
82.959930879800226
20
-168.12976273995591
10
100.98360567135927
20
-154.19926721738864
10
109.61559769758517
20
-169.27183789796868
42
0.34140605711067651
10
117.52535711743727
20
-172.54816752477979
10
134.28701415248142
20
-167.99399068352068
10
137.1813289701978
20
-190.58900119982934
10
159.77633948650637
20
-193.48331601754575
10
153.80360152853234
20
-215.46599009922946
10
173.57106295263833
20
-226.78672449866806
10
159.64056743007117
20
-244.81039929022717
10
173.57106295263839
20
-262.8340740817863
10
153.80360152853245
20
-274.15480848122502
10
159.77633948650646
20
-296.1374825629087
10
137.18132897019788
20
-299.03179738062505
10
134.28701415248159
20
-321.6268078969336
10
112.30434007079802
20
-315.65406993895965
10
100.98360567135953
20
-335.4215313630657
10
82.959930879800439
20
-321.49103584049834
10
64.93625608824135
20
-335.42153136306558
10
53.615521688802815
20
-315.65406993895965
10
31.632847607119192
20
-321.62680789693354
0
LWPOLYLINE
5
266
100
AcDbEntity
8
0
100
AcDbPolyline
90
33
70
1
43
0.0
10
-171.26146721059717
20
-299.03179738062488
10
-193.85647772690572
20
-296.13748256290853
10
-187.88373976893178
20
-274.15480848122479
10
-207.65120119303771
20
-262.83407408178624
10
-193.72070567047049
20
-244.81039929022705
10
-207.65120119303776
20
-226.78672449866787
10
-187.88373976893183
20
-215.46599009922932
10
-193.85647772690578
20
-193.48331601754558
10
-171.26146721059726
20
-190.58900119982923
10
-168.36715239288097
20
-167.99399068352059
10
-146.38447831119737
20
-173.96672864149468
10
-135.06374391175885
20
-154.19926721738861
10
-117.04006912019977
20
-168.12976273995591
10
-99.016394328640729
20
-154.19926721738864
10
-90.384402302414799
20
-169.27183789796871
42
0.34140605711066946
10
-82.474642882562875
20
-172.54816752477979
10
-65.712985847518596
20
-167.99399068352068
10
-62.818671029802218
20
-190.58900119982934
10
-40.22366051349362
20
-193.48331601754575
10
-46.196398471467646
20
-215.46599009922946
10
-26.428937047361636
20
-226.78672449866804
10
-40.359432569928813
20
-244.81039929022717
10
-26.428937047361583
20
-262.83407408178635
10
-46.19639847146756
20
-274.15480848122496
10
-40.223660513493527
20
-296.1374825629087
10
-62.818671029802132
20
-299.03179738062505
10
-65.712985847518382
20
-321.6268078969336
10
-87.695659929201994
20
-315.65406993895965
10
-99.016394328640473
20
-335.4215313630657
10
-117.04006912019956
20
-321.49103584049834
10
-135.06374391175865
20
-335.42153136306558
10
-146.38447831119717
20
-315.65406993895965
10
-168.36715239288083
20
-321.6268078969336
0
LINE
5
267
100
AcDbEntity
8
0
100
AcDbLine
10
-364.92943021481295
20
-325.04396803311687
30
3.2654537853703496e-15
11
-368.26146721059717
21
-299.03179738062488
31
1.289384385175511e-15
0
LINE
5
268
100
AcDbEntity
8
0
100
AcDbLine
10
-368.26146721059717
20
-299.03179738062488
30
1.289384385175511e-15
11
-390.85647772690572
21
-296.13748256290853
31
2.3330200380075615e-16
0
LINE
5
269
100
AcDbEntity
8
0
100
AcDbLine
10
-390.85647772690572
20
-296.13748256290853
30
2.3330200380075615e-16
11
-384.88373976893172
21
-274.15480848122485
31
-5.5323525582630289e-15
0
LINE
5
270
100
AcDbEntity
8
0
100
AcDbLine
10
-384.88373976893172
20
-274.15480848122485
30
-5.5323525582630289e-15
11
-404.65120119303771
21
-262.83407408178624
31
1.9373917867547593e-15
0
LINE
5
271
100
AcDbEntity
8
0
100
AcDbLine
10
-404.65120119303771
20
-262.83407408178624
30
1.9373917867547593e-15
11
-393.08397445989465
21
-247.86806425531179
31
-4.1319793160578797e-16
0
ARC
5
272
100
AcDbEntity
8
0
100
AcDbCircle
10
-63.175021829950957
20
-125.42513947106272
30
1.1102230246251565e-14
40
1.9999999999999756
210
-3.9806851659957226e-17
220
5.4122014833368867e-17
230
1
100
AcDbArc
50
254.79956892954164
51
352.70043107045848
0
LINE
5
273
100
AcDbEntity
8
0
100
AcDbLine
10
-63.69941470801173
20
-127.35516851474031
30
1.1185812877273814e-14
11
-85.277344233897139
21
-121.49240048866432
31
9.9259759884137494e-15
0
LINE
5
274
100
AcDbEntity
8
0
100
AcDbLine
10
-99.016394328640473
20
-135.42153136306567
30
6.4700729557753131e-15
11
-117.04006912019956
21
-121.49103584049833
31
4.9610091626410699e-15
0
LINE
5
275
100
AcDbEntity
8
0
100
AcDbLine
10
-7.6512011930377177
20
-62.83407408178622
30
-1.7294482992948409e-16
11
6.2792943295294457
21
-44.810399290227068
31
-4.6228339261150319e-16
0
LINE
5
276
100
AcDbEntity
8
0
100
AcDbLine
10
6.2792943295294457
20
-44.810399290227068
30
-4.6228339261150319e-16
11
-7.6512011930377888
21
-26.78672449866788
31
-3.4172552423437672e-15
0
LINE
5
277
100
AcDbEntity
8
0
100
AcDbLine
10
-146.3844783111972
20
-115.65406993895962
30
8.2441998783377637e-15
11
-168.36715239288083
21
-121.62680789693354
31
2.9333932137571827e-15
0
LINE
5
278
100
AcDbEntity
8
0
100
AcDbLine
10
-117.04006912019956
20
-121.49103584049833
30
4.9610091626410699e-15
11
-135.06374391175865
21
-135.42153136306558
31
9.7491181043510748e-15
0
LINE
5
279
100
AcDbEntity
8
0
100
AcDbLine
10
-135.06374391175865
20
-135.42153136306558
30
9.7491181043510748e-15
11
-146.3844783111972
21
-115.65406993895962
31
8.2441998783377637e-15
0
LINE
5
280
100
AcDbEntity
8
0
100
AcDbLine
10
-26.428937047361583
20
-62.834074081786326
30
2.3070322177186103e-15
11
-46.19639847146756
21
-74.15480848122499
31
1.9968524817322672e-15
0
LINE
5
281
100
AcDbEntity
8
0
100
AcDbLine
10
-7.6512011930377888
20
-26.78672449866788
30
-3.4172552423437672e-15
11
12.116260231068168
21
-15.465990099229323
31
-3.1070755063574245e-15
0
LINE
5
282
100
AcDbEntity
8
0
100
AcDbLine
10
6.2779296813635632
20
-76.573124176529674
30
-4.2651317586180494e-15
11
-13.125573638117416
21
-65.460826912572614
31
3.0670798028258833e-15
0
LINE
5
283
100
AcDbEntity
8
0
100
AcDbLine
10
-13.125573638117469
20
-24.159971667881486
30
-3.4641653257933555e-15
11
6.2779296813634922
21
-13.047674403924461
31
-3.1596966129060637e-15
0
LINE
5
284
100
AcDbEntity
8
0
100
AcDbLine
10
-7.6512011930377888
20
-26.78672449866788
30
-3.4172552423437672e-15
11
12.116260231068168
21
-15.465990099229323
31
-3.1070755063574245e-15
0
LINE
5
285
100
AcDbEntity
8
0
100
AcDbLine
10
-58.350206281716197
20
-103.50026212871093
30
2.6015552276442433e-15
11
-61.191231032860784
21
-125.67925376302654
31
1.1079286685016885e-14
0
LINE
5
286
100
AcDbEntity
8
0
100
AcDbLine
10
-117.04006912019956
20
-127.81039929022754
30
5.2170175262909379e-15
11
-134.731892371757
21
-141.48440680767862
31
3.3664781277975972e-15
0
LINE
5
287
100
AcDbEntity
8
0
100
AcDbLine
10
-99.016394328640473
20
-135.42153136306567
30
7.6784917038279873e-15
11
-117.04006912019956
21
-121.49103584049833
31
5.5368449067043121e-15
0
LINE
5
288
100
AcDbEntity
8
0
100
AcDbLine
10
-99.348245868642124
20
-141.48440680767868
30
6.6982964670294416e-15
11
-117.04006912019956
21
-127.81039929022754
31
5.2170175262909379e-15
0
LINE
5
289
100
AcDbEntity
8
0
100
AcDbLine
10
-117.04006912019956
20
-121.49103584049833
30
5.5368449067043121e-15
11
-135.06374391175865
21
-135.42153136306558
31
3.6515943119429619e-15
0
LINE
5
290
100
AcDbEntity
8
0
100
AcDbLine
10
-87.695659929201994
20
-115.65406993895962
30
9.7082392937828218e-15
11
-99.016394328640473
21
-135.42153136306567
31
6.4700729557753131e-15
0
LINE
5
291
100
AcDbEntity
8
0
100
AcDbLine
10
-62.818671029802111
20
-99.031797380625051
30
2.4552386400017594e-15
11
-65.712985847518411
21
-121.62680789693361
31
1.0991707371230657e-14
0
LINE
5
292
100
AcDbEntity
8
0
100
AcDbLine
10
-62.818671029802132
20
-99.031797380625051
30
1.1363550562417488e-15
11
-65.712985847518382
21
-121.62680789693361
31
9.7731062030972902e-15
0
LINE
5
293
100
AcDbEntity
8
0
100
AcDbLine
10
-146.38447831119717
20
-115.65406993895962
30
8.9108060400318448e-15
11
-168.36715239288083
21
-121.62680789693361
31
6.4863556760856224e-15
0
LINE
5
294
100
AcDbEntity
8
0
100
AcDbLine
10
6.2792943295294457
20
-44.810399290227068
30
-4.6228339261150319e-16
11
-7.6512011930377888
21
-26.78672449866788
31
-3.4172552423437672e-15
0
LINE
5
295
100
AcDbEntity
8
0
100
AcDbLine
10
-36.171214647400646
20
-100.65923737756627
30
3.4481513187467627e-15
11
-58.350206281716197
21
-103.50026212871093
31
2.6015552276442433e-15
0
LINE
5
296
100
AcDbEntity
8
0
100
AcDbLine
10
-65.712985847518411
20
-121.62680789693361
30
1.0991707371230657e-14
11
-87.695659929201994
21
-115.65406993895962
31
9.7082392937828218e-15
0
LINE
5
297
100
AcDbEntity
8
0
100
AcDbLine
10
-34.040069120199675
20
-44.810399290227174
30
8.1847591039818838e-15
11
-20.366061602748626
21
-62.502222541784711
31
9.2733974816705219e-15
0
ARC
5
298
100
AcDbEntity
8
0
100
AcDbCircle
10
-36.425328939364491
20
-98.675446580476063
30
3.3306690738754696e-15
40
2.0000000000000231
210
-3.9806851659957737e-17
220
5.4122014833366778e-17
230
1
100
AcDbArc
50
-82.700431070457725
51
15.200431070457137
0
LINE
5
299
100
AcDbEntity
8
0
100
AcDbLine
10
163.82878535259934
20
-100.65923737756627
30
3.4481513187467627e-15
11
141.6497937182838
21
-103.50026212871093
31
2.6015552276442433e-15
0
LINE
5
300
100
AcDbEntity
8
0
100
AcDbLine
10
-87.695659929201994
20
-115.65406993895962
30
1.0385153420223256e-14
11
-99.016394328640473
21
-135.42153136306567
31
7.6784917038279873e-15
0
LINE
5
301
100
AcDbEntity
8
0
100
AcDbLine
10
-26.428937047361583
20
-62.834074081786362
30
9.1056688613485283e-15
11
-46.19639847146756
21
-74.154808481224961
31
4.3459954387751373e-16
0
ARC
5
302
100
AcDbEntity
8
0
100
AcDbCircle
10
29.09488358955177
20
-125.42513947106258
30
3.3306690738754696e-15
40
2.0000000000000013
210
-3.9806851659958717e-17
220
5.4122014833367222e-17
230
1
100
AcDbArc
50
187.29956892954351
51
285.2004310704574
0
LINE
5
303
100
AcDbEntity
8
0
100
AcDbLine
10
-40.358067921762867
20
-76.573124176529817
30
2.0494735882809067e-15
11
-34.49529989568687
21
-98.151053702415325
31
1.1393226580630485e-14
0
LINE
5
304
100
AcDbEntity
8
0
100
AcDbLine
10
82.959930879800439
20
-121.49103584049833
30
4.9610091626410699e-15
11
64.93625608824135
21
-135.42153136306558
31
9.7491181043510748e-15
0
LINE
5
305
100
AcDbEntity
8
0
100
AcDbLine
10
82.959930879800439
20
-127.81039929022754
30
5.2170175262909379e-15
11
65.268107628243001
21
-141.48440680767862
31
3.3664781277975972e-15
0
LINE
5
306
100
AcDbEntity
8
0
100
AcDbLine
10
173.57106295263839
20
-62.834074081786326
30
2.3070322177186103e-15
11
153.80360152853245
21
-74.15480848122499
31
1.9968524817322672e-15
0
LINE
5
307
100
AcDbEntity
8
0
100
AcDbLine
10
31.632847607119192
20
-121.62680789693354
30
2.9333932137571827e-15
11
28.738532789402839
21
-99.031797380624909
31
7.3773605733515563e-16
0
LWPOLYLINE
5
308
100
AcDbEntity
8
0
100
AcDbPolyline
90
49
70
1
43
0.0
10
-410.71407663765069
20
-62.502222541784604
10
-397.04006912019963
20
-44.810399290227068
10
-410.71407663765069
20
-27.118576038669538
42
-0.45520394892929644
10
-410.12557363811754
20
-24.159971667881486
10
-390.72207031863655
20
-13.047674403924461
10
-396.58483834471241
20
8.5302551219610407
42
-0.45520394892928673
10
-394.9089235929988
20
11.038438797111993
10
-372.72993195868321
20
13.879463548256652
10
-369.88890720753864
20
36.05845518257231
42
-0.45520394892930438
10
-367.38072353238761
20
37.734369934286107
10
-345.80279400650227
20
31.871601908210039
10
-334.69049674254518
20
51.275105227691142
42
-0.45520394892929683
10
-331.73189237175723
20
51.863608227224383
10
-314.0400691201998
20
38.189600709773259
10
-296.34824586864238
20
51.863608227224361
42
-0.45520394892929517
10
-293.38964149785443
20
51.275105227691107
10
-283.04555634052946
20
33.212999263503171
42
0.34140605711066224
10
-280.78562507771466
20
32.276905084414267
10
-260.699414708012
20
37.734369934285937
42
-0.45520394892930577
10
-258.19123103286103
20
36.058455182572224
10
-255.35020628171637
20
13.879463548256545
10
-233.17121464740072
20
11.038438797111905
42
-0.45520394892929456
10
-231.49529989568694
20
8.5302551219609057
10
-237.35806792176294
20
-13.047674403924603
10
-217.95456460228192
20
-24.159971667881646
42
-0.45520394892929383
10
-217.36606160274872
20
-27.118576038669673
10
-231.04006912019966
20
-44.810399290227174
10
-217.3660616027486
20
-62.502222541784683
42
-0.45520394892930804
10
-217.95456460228183
20
-65.460826912572713
10
-237.35806792176288
20
-76.573124176529817
10
-231.49529989568686
20
-98.151053702415311
42
-0.45520394892930349
10
-233.17121464740066
20
-100.65923737756627
10
-255.35020628171623
20
-103.50026212871093
10
-258.19123103286086
20
-125.67925376302652
42
-0.4552039489292945
10
-260.69941470801166
20
-127.35516851474031
10
-282.27734423389722
20
-121.49240048866432
10
-293.38964149785409
20
-140.89590380814542
42
-0.45520394892930149
10
-296.34824586864215
20
-141.48440680767868
10
-314.04006912019952
20
-127.81039929022754
10
-331.73189237175706
20
-141.48440680767862
42
-0.45520394892930149
10
-334.69049674254506
20
-140.89590380814536
10
-345.80279400650198
20
-121.49240048866432
10
-367.38072353238749
20
-127.35516851474016
42
-0.45520394892929905
10
-369.88890720753841
20
-125.67925376302647
10
-372.7299319586831
20
-103.50026212871079
10
-394.90892359299863
20
-100.65923737756613
42
-0.45520394892930799
10
-396.58483834471241
20
-98.151053702415183
10
-390.72207031863638
20
-76.573124176529674
10
-410.12557363811737
20
-65.460826912572642
42
-0.45520394892931076
0
ARC
5
309
100
AcDbEntity
8
0
100
AcDbCircle
10
64.045041642209114
20
-139.90196894355662
30
9.9920072216264089e-15
40
1.9999999999999845
210
-3.9806851659957195e-17
220
5.4122014833367357e-17
230
1
100
AcDbArc
50
209.79956892954237
51
307.70043107045757
0
LINE
5
310
100
AcDbEntity
8
0
100
AcDbLine
10
-85.277344233897139
20
-121.49240048866432
30
9.9259759884137494e-15
11
-96.389641497854115
21
-140.89590380814542
31
7.2691492734394938e-15
0
LINE
5
311
100
AcDbEntity
8
0
100
AcDbLine
10
-168.36715239288083
20
-121.62680789693354
30
2.9333932137571827e-15
11
-170.77045496595761
21
-102.86497639880118
31
1.1102230246251565e-15
0
LINE
5
312
100
AcDbEntity
8
0
100
AcDbLine
10
173.57106295263839
20
-62.834074081786326
30
2.3070322177186103e-15
11
153.80360152853245
21
-74.15480848122499
31
1.9968524817322672e-15
0
LINE
5
313
100
AcDbEntity
8
0
100
AcDbLine
10
153.80360152853234
20
-15.465990099229465
30
3.2982279460756548e-15
11
173.57106295263833
21
-26.786724498668057
31
7.9445060023055802e-15
0
ARC
5
314
100
AcDbEntity
8
0
100
AcDbCircle
10
2.345190698965256
20
-98.675446580475949
30
-3.3306690738754696e-15
40
2.0000000000000013
210
-3.980685165995738e-17
220
5.4122014833367111e-17
230
1
100
AcDbArc
50
164.79956892954209
51
262.70043107045768
0
LINE
5
315
100
AcDbEntity
8
0
100
AcDbLine
10
-117.04006912019977
20
38.189600709773259
30
-6.3272405509160944e-15
11
-99.348245868642351
21
51.863608227224361
31
-4.4767011524227537e-15
0
LINE
5
316
100
AcDbEntity
8
0
100
AcDbLine
10
0.41516165528763693
20
-98.151053702415183
30
-3.435878652841471e-15
11
6.2779296813635632
21
-76.573124176529674
31
-4.2651317586180494e-15
0
LINE
5
317
100
AcDbEntity
8
0
100
AcDbLine
10
-259.8186710298022
20
9.4109988001706668
30
-2.9116942211358814e-15
11
-237.22366051349366
21
6.5166839824542677
31
2.4534202580330076e-15
0
LINE
5
318
100
AcDbEntity
8
0
100
AcDbLine
10
153.80360152853234
20
-15.465990099229465
30
3.2982279460756548e-15
11
173.57106295263833
21
-26.786724498668057
31
7.9445060023055802e-15
0
LINE
5
319
100
AcDbEntity
8
0
100
AcDbLine
10
-197.90892359299872
20
11.038438797111993
30
-4.5583743433719196e-15
11
-175.72993195868318
21
13.879463548256652
31
-3.7117782522693991e-15
0
LINE
5
320
100
AcDbEntity
8
0
100
AcDbLine
10
-187.88373976893183
20
-15.465990099229323
30
-3.0798548814793939e-15
11
-193.85647772690578
21
6.5166839824544098
31
-3.5504889824883758e-15
0
LINE
5
321
100
AcDbEntity
8
0
100
AcDbLine
10
159.77633948650646
20
-96.137482562908687
30
3.3177146216388514e-15
11
137.18132897019788
21
-99.031797380625051
31
2.4552386400017594e-15
0
LINE
5
322
100
AcDbEntity
8
0
100
AcDbLine
10
-259.8186710298022
20
-99.031797380625051
30
2.4552386400017594e-15
11
-262.71298584751844
21
-121.62680789693361
31
1.0991707371230657e-14
0
LINE
5
323
100
AcDbEntity
8
0
100
AcDbLine
10
-117.04006912019977
20
31.870237260044085
30
-6.0712321872662264e-15
11
-99.016394328640729
21
45.800732782611355
31
-1.9777319137554488e-15
0
LINE
5
324
100
AcDbEntity
8
0
100
AcDbLine
10
-213.12557363811749
20
-24.159971667881486
30
-3.4641653257933555e-15
11
-193.72207031863653
21
-13.047674403924461
31
-3.1596966129060637e-15
0
LINE
5
325
100
AcDbEntity
8
0
100
AcDbLine
10
-96.389641497854342
20
51.275105227691107
30
-2.205153487702916e-15
11
-86.045556340529501
21
33.212999263503171
31
-8.3112301891908359e-16
0
LINE
5
326
100
AcDbEntity
8
0
100
AcDbLine
10
100.65175413135789
20
-141.48440680767868
30
6.6982964670294416e-15
11
82.959930879800439
21
-127.81039929022754
31
5.2170175262909379e-15
0
LINE
5
327
100
AcDbEntity
8
0
100
AcDbLine
10
-207.65120119303771
20
-62.83407408178622
30
1.9373917867547593e-15
11
-193.72070567047049
21
-44.810399290227068
31
-2.2504935133935684e-16
0
ARC
5
328
100
AcDbEntity
8
0
100
AcDbCircle
10
136.82497817004904
20
-125.42513947106272
30
1.1102230246251565e-14
40
1.9999999999999756
210
-3.9806851659957226e-17
220
5.4122014833368867e-17
230
1
100
AcDbArc
50
254.79956892954223
51
352.70043107045848
0
LINE
5
329
100
AcDbEntity
8
0
100
AcDbLine
10
-171.26146721059726
20
9.4109988001707734
30
-3.5654616646269152e-15
11
-168.36715239288094
21
32.006009316479407
31
-3.2201461988545566e-15
0
LINE
5
330
100
AcDbEntity
8
0
100
AcDbLine
10
-404.65120119303776
20
-62.83407408178622
30
-1.7294482992948409e-16
11
-390.72070567047047
21
-44.810399290227068
31
-4.6228339261150319e-16
0
ARC
5
331
100
AcDbEntity
8
0
100
AcDbCircle
10
101.87482011739176
20
-139.90196894355671
30
6.6613381477509392e-15
40
2.0000000000000013
210
-3.9806851659957688e-17
220
5.4122014833367099e-17
230
1
100
AcDbArc
50
232.29956892954226
51
330.20043107045842
0
LINE
5
332
100
AcDbEntity
8
0
100
AcDbLine
10
-168.36715239288083
20
-121.62680789693361
30
6.4863556760856224e-15
11
-171.26146721059717
21
-99.031797380624909
31
1.2893843851755078e-15
0
LINE
5
333
100
AcDbEntity
8
0
100
AcDbLine
10
153.80360152853245
20
-74.15480848122499
30
1.9968524817322672e-15
11
159.77633948650646
21
-96.137482562908687
31
3.3177146216388514e-15
0
LINE
5
334
100
AcDbEntity
8
0
100
AcDbLine
10
-13.714076637650692
20
-62.502222541784604
30
-1.2918666475651709e-16
11
-0.040069120199692776
21
-44.810399290227068
31
-4.1319793160578797e-16
0
LINE
5
335
100
AcDbEntity
8
0
100
AcDbLine
10
-40.359432569928813
20
-44.810399290227174
30
7.9966105237154531e-15
11
-26.428937047361583
21
-62.834074081786362
31
9.1056688613485283e-15
0
LINE
5
336
100
AcDbEntity
8
0
100
AcDbLine
10
-213.71407663765069
20
-62.502222541784604
30
-1.2918666475651709e-16
11
-200.04006912019969
21
-44.810399290227068
31
-4.1319793160578797e-16
0
LINE
5
337
100
AcDbEntity
8
0
100
AcDbLine
10
-237.3594325699288
20
-44.810399290227174
30
8.2338445649875988e-15
11
-223.42893704736159
21
-62.834074081786326
31
2.3070322177186103e-15
0
LINE
5
338
100
AcDbEntity
8
0
100
AcDbLine
10
-170.38072353238761
20
37.734369934286107
30
-3.4142517048977174e-15
11
-148.80279400650221
21
31.871601908210039
31
-2.1544148160376516e-15
0
LINE
5
339
100
AcDbEntity
8
0
100
AcDbLine
10
112.30434007079802
20
-115.65406993895962
30
9.7082392937828218e-15
11
100.98360567135953
21
-135.42153136306567
31
6.4700729557753131e-15
0
LINE
5
340
100
AcDbEntity
8
0
100
AcDbLine
10
-171.26146721059726
20
9.4109988001707734
30
-3.9734894329657114e-15
11
-168.36715239288097
21
32.006009316479407
31
-2.4308098836859729e-15
0
LINE
5
341
100
AcDbEntity
8
0
100
AcDbLine
10
-148.80279400650204
20
-121.49240048866432
30
8.4995049583624739e-15
11
-170.38072353238746
21
-127.35516851474024
31
6.1196935260568701e-15
0
LINE
5
342
100
AcDbEntity
8
0
100
AcDbLine
10
-117.04006912019977
20
31.870237260044085
30
-6.6470679313294686e-15
11
-99.016394328640729
21
45.800732782611355
31
-4.7618173365681216e-15
0
LINE
5
343
100
AcDbEntity
8
0
100
AcDbLine
10
-314.04006912019952
20
-121.49103584049833
30
4.9610091626410699e-15
11
-332.06374391175871
21
-135.42153136306558
31
9.7491181043510748e-15
0
LINE
5
344
100
AcDbEntity
8
0
100
AcDbLine
10
100.98360567135953
20
-135.42153136306567
30
6.4700729557753131e-15
11
82.959930879800439
21
-121.49103584049833
31
4.9610091626410699e-15
0
LINE
5
345
100
AcDbEntity
8
0
100
AcDbLine
10
-262.71298584751844
20
-121.62680789693361
30
1.0991707371230657e-14
11
-284.69565992920195
21
-115.65406993895962
31
9.7082392937828218e-15
0
LINE
5
346
100
AcDbEntity
8
0
100
AcDbLine
10
-343.3844783111972
20
-115.65406993895962
30
8.2441998783377637e-15
11
-365.36715239288083
21
-121.62680789693354
31
2.9333932137571827e-15
0
ARC
5
347
100
AcDbEntity
8
0
100
AcDbCircle
10
-170.90511641044839
20
35.804340890608444
30
-3.3306690738754696e-15
40
2.0000000000000444
210
-3.9806851659957799e-17
220
5.4122014833366778e-17
230
1
100
AcDbArc
50
74.799568929541991
51
172.7004310704574
0
LINE
5
348
100
AcDbEntity
8
0
100
AcDbLine
10
114.72265576610286
20
-121.49240048866432
30
9.9259759884137494e-15
11
103.61035850214589
21
-140.89590380814542
31
7.2691492734394938e-15
0
LINE
5
349
100
AcDbEntity
8
0
100
AcDbLine
10
-243.19639847146757
20
-74.15480848122499
30
1.9968524817322672e-15
11
-237.22366051349351
21
-96.137482562908687
31
3.3177146216388514e-15
0
LINE
5
350
100
AcDbEntity
8
0
100
AcDbLine
10
137.18132897019788
20
-99.031797380625051
30
2.4552386400017594e-15
11
134.28701415248159
21
-121.62680789693361
31
1.0991707371230657e-14
0
LINE
5
351
100
AcDbEntity
8
0
100
AcDbLine
10
-168.36715239288097
20
32.006009316479407
30
-2.4308098836859729e-15
11
-146.38447831119737
21
26.03327135850531
31
-1.0785599348704216e-15
0
LINE
5
352
100
AcDbEntity
8
0
100
AcDbLine
10
-199.58483834471238
20
-98.151053702415183
30
-3.435878652841471e-15
11
-193.72207031863644
21
-76.573124176529674
31
-4.2651317586180494e-15
0
LINE
5
353
100
AcDbEntity
8
0
100
AcDbLine
10
53.615521688802815
20
-115.65406993895962
30
8.2441998783377637e-15
11
31.632847607119192
21
-121.62680789693354
31
2.9333932137571827e-15
0
LINE
5
354
100
AcDbEntity
8
0
100
AcDbLine
10
-83.785625077714627
20
32.276905084414267
30
1.2355545146644098e-15
11
-63.699414708011943
21
37.734369934286001
31
2.7246458522904326e-15
0
LINE
5
355
100
AcDbEntity
8
0
100
AcDbLine
10
-20.36606160274868
20
-27.118576038669673
30
7.9007478371326129e-15
11
-34.040069120199675
21
-44.810399290227174
31
8.1847591039818838e-15
0
ARC
5
356
100
AcDbEntity
8
0
100
AcDbCircle
10
-98.125179882608478
20
50.281170363102348
30
-2.2204460492503131e-15
40
2.0000000000000178
210
-3.9806851659957756e-17
220
5.4122014833367105e-17
230
1
100
AcDbArc
50
29.799568929542598
51
127.700431070457
0
LINE
5
357
100
AcDbEntity
8
0
100
AcDbLine
10
-296.01639432864079
20
45.800732782611355
30
-1.9777319137554488e-15
11
-287.3844023024148
21
30.728162102031327
31
-5.6844881277796143e-15
0
ARC
5
358
100
AcDbEntity
8
0
100
AcDbCircle
10
-135.9549583577911
20
50.281170363102383
30
-7.7715611723760958e-15
40
2.0000000000000231
210
-3.9806851659957306e-17
220
5.412201483336769e-17
230
1
100
AcDbArc
50
52.299568929542126
51
150.200431070457
0
LINE
5
359
100
AcDbEntity
8
0
100
AcDbLine
10
-284.69565992920195
20
-115.65406993895962
30
9.7082392937828218e-15
11
-296.01639432864044
21
-135.42153136306567
31
6.4700729557753131e-15
0
LINE
5
360
100
AcDbEntity
8
0
100
AcDbLine
10
-207.65120119303776
20
-26.78672449866788
30
-1.3341076889724348e-15
11
-187.88373976893183
21
-15.465990099229323
31
-3.0798548814793939e-15
0
ARC
5
361
100
AcDbEntity
8
0
100
AcDbCircle
10
-212.13163877352872
20
-25.895510052635622
30
-3.3306690738754696e-15
40
2.0000000000000178
210
-3.9806851659957491e-17
220
5.4122014833366988e-17
230
1
100
AcDbArc
50
119.79956892954277
51
217.70043107045802
0
LINE
5
362
100
AcDbEntity
8
0
100
AcDbLine
10
-372.7299319586831
20
-103.50026212871079
30
1.1102230246251565e-15
11
-394.90892359299863
21
-100.65923737756613
31
7.3585210947103694e-17
0
LINE
5
363
100
AcDbEntity
8
0
100
AcDbLine
10
159.77633948650646
20
-96.137482562908687
30
3.3177146216388514e-15
11
137.18132897019788
21
-99.031797380625051
31
2.4552386400017594e-15
0
LINE
5
364
100
AcDbEntity
8
0
100
AcDbLine
10
-146.38447831119734
20
26.03327135850531
30
-1.9366781214067205e-15
11
-135.06374391175885
21
45.800732782611391
31
-7.5802959804004696e-15
0
LINE
5
365
100
AcDbEntity
8
0
100
AcDbLine
10
-146.38447831119737
20
26.03327135850531
30
-1.0785599348704216e-15
11
-135.06374391175885
21
45.800732782611391
31
-7.4202810594843182e-15
0
LINE
5
366
100
AcDbEntity
8
0
100
AcDbLine
10
-148.80279400650221
20
31.871601908210039
30
-2.1544148160376516e-15
11
-137.69049674254521
21
51.275105227691142
31
-8.3793722980646519e-15
0
LINE
5
367
100
AcDbEntity
8
0
100
AcDbLine
10
134.28701415248159
20
-121.62680789693361
30
1.0991707371230657e-14
11
112.30434007079802
21
-115.65406993895962
31
9.7082392937828218e-15
0
LINE
5
368
100
AcDbEntity
8
0
100
AcDbLine
10
-135.06374391175885
20
45.800732782611391
30
-7.5802959804004696e-15
11
-117.04006912019977
21
31.870237260044085
31
-6.0712321872662264e-15
0
LINE
5
369
100
AcDbEntity
8
0
100
AcDbLine
10
-46.196398471467646
20
-15.465990099229465
30
3.2982279460756548e-15
11
-26.428937047361654
21
-26.786724498668057
31
7.9445060023055802e-15
0
LINE
5
370
100
AcDbEntity
8
0
100
AcDbLine
10
-223.42893704736159
20
-62.834074081786326
30
2.3070322177186103e-15
11
-243.19639847146757
21
-74.15480848122499
31
1.9968524817322672e-15
0
LINE
5
371
100
AcDbEntity
8
0
100
AcDbLine
10
112.30434007079802
20
-115.65406993895962
30
9.7082392937828218e-15
11
100.98360567135953
21
-135.42153136306567
31
6.4700729557753131e-15
0
LINE
5
372
100
AcDbEntity
8
0
100
AcDbLine
10
-135.06374391175885
20
45.800732782611391
30
-7.4202810594843182e-15
11
-117.04006912019977
21
31.870237260044085
31
-6.6470679313294686e-15
0
LINE
5
373
100
AcDbEntity
8
0
100
AcDbLine
10
-193.85647772690578
20
6.5166839824544098
30
-3.5504889824883758e-15
11
-171.26146721059726
21
9.4109988001707734
31
-3.9734894329657114e-15
0
LINE
5
374
100
AcDbEntity
8
0
100
AcDbLine
10
27.111092792461591
20
-125.67925376302647
30
3.2654537853703496e-15
11
24.270068041316925
21
-103.50026212871079
31
1.1102230246251565e-15
0
ARC
5
375
100
AcDbEntity
8
0
100
AcDbCircle
10
-63.17502182995117
20
35.804340890608373
30
-4.4408920985006262e-15
40
1.999999999999988
210
-3.980685165995791e-17
220
5.4122014833367117e-17
230
1
100
AcDbArc
50
7.2995689295426116
51
105.20043107045807
0
LINE
5
376
100
AcDbEntity
8
0
100
AcDbLine
10
-171.26146721059717
20
-99.031797380624909
30
1.2893843851755078e-15
11
-193.85647772690572
21
-96.137482562908545
31
2.3330200380075467e-16
0
LINE
5
377
100
AcDbEntity
8
0
100
AcDbLine
10
-193.72207031863644
20
-76.573124176529674
30
-4.2651317586180494e-15
11
-213.12557363811743
21
-65.460826912572614
31
3.0670798028258833e-15
0
LINE
5
378
100
AcDbEntity
8
0
100
AcDbLine
10
-134.7318923717572
20
51.863608227224383
30
-7.8085194916545981e-15
11
-117.04006912019977
21
38.189600709773259
31
-6.3272405509160944e-15
0
LINE
5
379
100
AcDbEntity
8
0
100
AcDbLine
10
-332.06374391175882
20
45.800732782611391
30
-7.5802959804004696e-15
11
-314.0400691201998
21
31.870237260044085
31
-6.0712321872662264e-15
0
LINE
5
380
100
AcDbEntity
8
0
100
AcDbLine
10
-187.88373976893178
20
-74.154808481224819
30
-5.5323525582630131e-15
11
-207.65120119303771
21
-62.83407408178622
31
1.9373917867547593e-15
0
LINE
5
381
100
AcDbEntity
8
0
100
AcDbLine
10
-368.26146721059717
20
-99.031797380624909
30
1.289384385175511e-15
11
-390.85647772690572
21
-96.137482562908545
31
2.3330200380075615e-16
0
LINE
5
382
100
AcDbEntity
8
0
100
AcDbLine
10
-364.92943021481295
20
-125.04396803311685
30
3.2654537853703496e-15
11
-368.26146721059717
21
-99.031797380624909
31
1.289384385175511e-15
0
LINE
5
383
100
AcDbEntity
8
0
100
AcDbLine
10
-168.36715239288094
20
32.006009316479407
30
-3.2201461988545566e-15
11
-146.38447831119734
21
26.03327135850531
31
-1.9366781214067205e-15
0
LINE
5
384
100
AcDbEntity
8
0
100
AcDbLine
10
-237.22366051349366
20
6.5166839824542677
30
2.4534202580330076e-15
11
-243.19639847146763
21
-15.465990099229465
31
3.2982279460756548e-15
0
LINE
5
385
100
AcDbEntity
8
0
100
AcDbLine
10
-404.65120119303771
20
-62.83407408178622
30
1.9373917867547593e-15
11
-393.08397445989465
21
-47.868064255311786
31
-4.1319793160578797e-16
0
LINE
5
386
100
AcDbEntity
8
0
100
AcDbLine
10
-26.428937047361654
20
-26.786724498668057
30
7.9445060023055802e-15
11
-40.359432569928813
21
-44.810399290227174
31
8.2338445649875988e-15
0
LINE
5
387
100
AcDbEntity
8
0
100
AcDbLine
10
64.93625608824135
20
-135.42153136306558
30
9.7491181043510748e-15
11
53.615521688802815
21
-115.65406993895962
31
8.2441998783377637e-15
0
LINE
5
388
100
AcDbEntity
8
0
100
AcDbLine
10
-175.72993195868318
20
13.879463548256652
30
-3.7117782522693991e-15
11
-172.88890720753855
21
36.058455182572295
31
-2.1975024880156337e-15
0
ARC
5
389
100
AcDbEntity
8
0
100
AcDbCircle
10
-84.310017955775365
20
34.20693412809193
30
1.1102230246251565e-15
40
7.0000000000000213
210
-2.406628983329687e-16
220
-1.378265369221461e-16
230
1
100
AcDbArc
50
209.7995689295426
51
285.20043107045632
0
ARC
5
390
100
AcDbEntity
8
0
100
AcDbCircle
10
-281.31001795577532
20
34.20693412809193
30
1.1102230246251565e-15
40
7.0000000000000355
210
-8.4232014416538331e-16
220
-4.8239287922750018e-16
230
1
100
AcDbArc
50
209.7995689295422
51
285.20043107045734
0
ARC
5
391
100
AcDbEntity
8
0
100
AcDbCircle
10
-36.425328939364604
20
9.0546480000216789
30
2.2204460492503131e-15
40
2.0000000000000098
210
-3.9806851659957201e-17
220
5.4122014833367099e-17
230
1
100
AcDbArc
50
-15.200431070458011
51
82.700431070457185
0
LINE
5
392
100
AcDbEntity
8
0
100
AcDbLine
10
-193.72070567047052
20
-44.810399290227068
30
-4.6228339261150319e-16
11
-207.65120119303782
21
-26.78672449866788
31
-3.4172552423437672e-15
0
LINE
5
393
100
AcDbEntity
8
0
100
AcDbLine
10
-207.65120119303782
20
-26.78672449866788
30
-3.4172552423437672e-15
11
-187.88373976893183
21
-15.465990099229323
31
-3.1070755063574245e-15
0
LINE
5
394
100
AcDbEntity
8
0
100
AcDbLine
10
-46.196398471467646
20
-15.465990099229465
30
2.8870972206611345e-15
11
-26.428937047361636
21
-26.786724498668022
31
4.4657357166525317e-15
0
LINE
5
395
100
AcDbEntity
8
0
100
AcDbLine
10
134.28701415248159
20
-121.62680789693361
30
1.0991707371230657e-14
11
112.30434007079802
21
-115.65406993895962
31
9.7082392937828218e-15
0
LINE
5
396
100
AcDbEntity
8
0
100
AcDbLine
10
141.6497937182838
20
-103.50026212871093
30
2.6015552276442433e-15
11
138.8087689671392
21
-125.67925376302654
31
1.1079286685016885e-14
0
LINE
5
397
100
AcDbEntity
8
0
100
AcDbLine
10
-262.71298584751861
20
32.006009316479336
30
-4.1833567222354228e-15
11
-259.8186710298022
21
9.4109988001706668
31
-2.9116942211358814e-15
0
LWPOLYLINE
5
398
100
AcDbEntity
8
0
100
AcDbPolyline
90
2
70
1
43
0.0
10
24.270068041316925
20
-103.50026212871079
10
2.0910764070014132
20
-100.65923737756613
0
LINE
5
399
100
AcDbEntity
8
0
100
AcDbLine
10
-200.04006912019969
20
-44.810399290227068
30
-4.1319793160578797e-16
11
-213.71407663765072
21
-27.118576038669531
31
-1.5018363092944281e-15
0
LINE
5
400
100
AcDbEntity
8
0
100
AcDbLine
10
-26.428937047361636
20
-26.786724498668022
30
4.4657357166525317e-15
11
-40.359432569928813
21
-44.810399290227174
31
7.9966105237154531e-15
0
LINE
5
401
100
AcDbEntity
8
0
100
AcDbLine
10
-61.191231032860998
20
36.058455182572224
30
-4.3756768099955066e-15
11
-58.350206281716304
21
13.879463548256545
31
-3.1274281334479816e-15
0
LINE
5
402
100
AcDbEntity
8
0
100
AcDbLine
10
-390.85647772690572
20
-96.137482562908545
30
2.3330200380075615e-16
11
-384.88373976893172
21
-74.154808481224848
31
-5.5323525582630289e-15
0
LINE
5
403
100
AcDbEntity
8
0
100
AcDbLine
10
159.64056743007117
20
-44.810399290227174
30
8.2338445649875988e-15
11
173.57106295263839
21
-62.834074081786326
31
2.3070322177186103e-15
0
ARC
5
404
100
AcDbEntity
8
0
100
AcDbCircle
10
163.57467106063552
20
-98.675446580476063
30
3.3306690738754696e-15
40
2.0000000000000187
210
-3.9806851659957811e-17
220
5.4122014833367481e-17
230
1
100
AcDbArc
50
-82.700431070458549
51
15.200431070457332
0
LINE
5
405
100
AcDbEntity
8
0
100
AcDbLine
10
-296.01639432864044
20
-135.42153136306567
30
6.4700729557753131e-15
11
-314.04006912019952
21
-121.49103584049833
31
4.9610091626410699e-15
0
LINE
5
406
100
AcDbEntity
8
0
100
AcDbLine
10
-172.88890720753841
20
-125.67925376302647
30
3.2654537853703496e-15
11
-175.72993195868307
21
-103.50026212871079
31
1.1102230246251565e-15
0
LINE
5
407
100
AcDbEntity
8
0
100
AcDbLine
10
-193.72207031863653
20
-13.047674403924461
30
-3.1596966129060637e-15
11
-199.58483834471247
21
8.5302551219610478
31
-3.6216654082543892e-15
0
LINE
5
408
100
AcDbEntity
8
0
100
AcDbLine
10
159.64056743007117
20
-44.810399290227174
30
8.2338445649875988e-15
11
173.57106295263839
21
-62.834074081786326
31
2.3070322177186103e-15
0
LINE
5
409
100
AcDbEntity
8
0
100
AcDbLine
10
-279.4746428825627
20
27.451832475220215
30
1.2355545146644098e-15
11
-262.71298584751861
21
32.006009316479336
31
-4.1833567222354228e-15
0
LINE
5
410
100
AcDbEntity
8
0
100
AcDbLine
10
-365.36715239288083
20
-121.62680789693354
30
2.9333932137571827e-15
11
-367.77045496595758
21
-102.86497639880118
31
1.1102230246251565e-15
0
LINE
5
411
100
AcDbEntity
8
0
100
AcDbLine
10
103.61035850214566
20
51.275105227691107
30
-2.205153487702916e-15
11
113.9544436594705
21
33.212999263503171
31
-8.3112301891908359e-16
0
LINE
5
412
100
AcDbEntity
8
0
100
AcDbLine
10
179.04543539771817
20
-65.460826912572713
30
2.3539423011681982e-15
11
159.64193207823715
21
-76.573124176529817
31
2.0494735882809067e-15
0
LINE
5
413
100
AcDbEntity
8
0
100
AcDbLine
10
-193.85647772690572
20
-96.137482562908545
30
2.3330200380075467e-16
11
-187.88373976893178
21
-74.154808481224819
31
-5.5323525582630131e-15
0
LINE
5
414
100
AcDbEntity
8
0
100
AcDbLine
10
62.309503257454999
20
-140.89590380814536
30
9.9767146600790126e-15
11
51.197205993497974
21
-121.49240048866432
31
8.4995049583624739e-15
0
LINE
5
415
100
AcDbEntity
8
0
100
AcDbLine
10
51.197205993497974
20
-121.49240048866432
30
8.4995049583624739e-15
11
29.619276467612529
21
-127.35516851474024
31
6.1196935260568701e-15
0
ARC
5
416
100
AcDbEntity
8
0
100
AcDbCircle
10
-170.90511641044824
20
-125.42513947106258
30
3.3306690738754696e-15
40
1.9999999999999925
210
-3.9806851659958914e-17
220
5.4122014833367357e-17
230
1
100
AcDbArc
50
187.29956892954365
51
285.20043107045802
0
ARC
5
417
100
AcDbEntity
8
0
100
AcDbCircle
10
-212.13163877352869
20
-63.725288527818478
30
0
40
2.0000000000000013
210
-3.9806851659957824e-17
220
5.4122014833367222e-17
230
1
100
AcDbArc
50
142.29956892954277
51
240.20043107045791
0
LINE
5
418
100
AcDbEntity
8
0
100
AcDbLine
10
-390.72070567047047
20
-44.810399290227068
30
-4.6228339261150319e-16
11
-404.65120119303776
21
-26.78672449866788
31
-3.4172552423437672e-15
0
LINE
5
419
100
AcDbEntity
8
0
100
AcDbLine
10
-384.88373976893183
20
-15.465990099229323
30
-3.1070755063574245e-15
11
-390.85647772690578
21
6.5166839824544098
31
-4.427937646264008e-15
0
ARC
5
420
100
AcDbEntity
8
0
100
AcDbCircle
10
-84.310017955775365
20
34.20693412809193
30
1.1102230246251565e-15
40
2.0000000000000178
210
-8.7549178893366242e-16
220
-4.2447091187143554e-16
230
1
100
AcDbArc
50
209.7995689295426
51
285.20043107045683
0
LINE
5
421
100
AcDbEntity
8
0
100
AcDbLine
10
28.738532789402839
20
-99.031797380624909
30
7.3773605733515563e-16
11
6.1435222730942929
21
-96.137482562908545
31
2.3330200380075403e-16
0
ARC
5
422
100
AcDbEntity
8
0
100
AcDbCircle
10
115.68998204422464
20
34.20693412809193
30
1.1102230246251565e-15
40
7.0000000000000204
210
-8.4232014416538509e-16
220
-4.8239287922750116e-16
230
1
100
AcDbArc
50
209.79956892954226
51
285.20043107045746
0
LINE
5
423
100
AcDbEntity
8
0
100
AcDbLine
10
-223.42893704736167
20
-26.786724498668057
30
7.9445060023055802e-15
11
-237.3594325699288
21
-44.810399290227174
31
8.2338445649875988e-15
0
LINE
5
424
100
AcDbEntity
8
0
100
AcDbLine
10
53.615521688802815
20
-115.65406993895962
30
8.2441998783377637e-15
11
31.632847607119192
21
-121.62680789693354
31
2.9333932137571827e-15
0
LINE
5
425
100
AcDbEntity
8
0
100
AcDbLine
10
159.64193207823715
20
-76.573124176529817
30
2.0494735882809067e-15
11
165.50470010431312
21
-98.151053702415325
31
1.1393226580630485e-14
0
ARC
5
426
100
AcDbEntity
8
0
100
AcDbCircle
10
178.0515005331294
20
-63.725288527818584
30
2.2204460492503131e-15
40
2.0000000000000178
210
-3.9806851659957361e-17
220
5.4122014833366784e-17
230
1
100
AcDbArc
50
-60.200431070457149
51
37.700431070457718
0
LINE
5
427
100
AcDbEntity
8
0
100
AcDbLine
10
137.18132897019788
20
-99.031797380625051
30
2.4552386400017594e-15
11
134.28701415248159
21
-121.62680789693361
31
1.0991707371230657e-14
0
LINE
5
428
100
AcDbEntity
8
0
100
AcDbLine
10
-332.06374391175871
20
-135.42153136306558
30
9.7491181043510748e-15
11
-343.3844783111972
21
-115.65406993895962
31
8.2441998783377637e-15
0
LINE
5
429
100
AcDbEntity
8
0
100
AcDbLine
10
64.93625608824135
20
-135.42153136306558
30
9.7491181043510748e-15
11
53.615521688802815
21
-115.65406993895962
31
8.2441998783377637e-15
0
LINE
5
430
100
AcDbEntity
8
0
100
AcDbLine
10
-193.72070567047049
20
-44.810399290227068
30
-2.2504935133935684e-16
11
-207.65120119303776
21
-26.78672449866788
31
-1.3341076889724348e-15
0
LINE
5
431
100
AcDbEntity
8
0
100
AcDbLine
10
82.959930879800439
20
-121.49103584049833
30
4.9610091626410699e-15
11
64.93625608824135
21
-135.42153136306558
31
9.7491181043510748e-15
0
ARC
5
432
100
AcDbEntity
8
0
100
AcDbCircle
10
-197.65480930103485
20
9.054648000021821
30
-4.4408920985006262e-15
40
1.999999999999988
210
-3.9806851659957713e-17
220
5.4122014833368004e-17
230
1
100
AcDbArc
50
97.299568929543213
51
195.20043107045811
0
LINE
5
433
100
AcDbEntity
8
0
100
AcDbLine
10
-65.712985847518596
20
32.006009316479336
30
2.4781800689994735e-15
11
-62.818671029802218
21
9.4109988001706668
31
-4.0348894794026852e-15
0
LINE
5
434
100
AcDbEntity
8
0
100
AcDbLine
10
-243.19639847146763
20
-15.465990099229465
30
3.2982279460756548e-15
11
-223.42893704736167
21
-26.786724498668057
31
7.9445060023055802e-15
0
LINE
5
435
100
AcDbEntity
8
0
100
AcDbLine
10
-65.712985847518581
20
32.006009316479336
30
-4.1833567222354228e-15
11
-62.818671029802218
21
9.4109988001706668
31
-2.9116942211358814e-15
0
LINE
5
436
100
AcDbEntity
8
0
100
AcDbLine
10
100.98360567135927
20
45.800732782611355
30
-1.9777319137554488e-15
11
109.61559769758517
21
30.728162102031327
31
-5.6844881277796143e-15
0
LINE
5
437
100
AcDbEntity
8
0
100
AcDbLine
10
-175.72993195868307
20
-103.50026212871079
30
1.1102230246251565e-15
11
-197.9089235929986
21
-100.65923737756613
31
7.3585210947103694e-17
0
LINE
5
438
100
AcDbEntity
8
0
100
AcDbLine
10
-237.22366051349351
20
-96.137482562908687
30
3.3177146216388514e-15
11
-259.8186710298022
21
-99.031797380625051
31
2.4552386400017594e-15
0
LINE
5
439
100
AcDbEntity
8
0
100
AcDbLine
10
136.30058529198828
20
-127.35516851474031
30
1.1185812877273814e-14
11
114.72265576610286
21
-121.49240048866432
31
9.9259759884137494e-15
0
LINE
5
440
100
AcDbEntity
8
0
100
AcDbLine
10
-0.040069120199692776
20
-44.810399290227068
30
-4.1319793160578797e-16
11
-13.714076637650727
21
-27.118576038669531
31
-1.5018363092944281e-15
0
LINE
5
441
100
AcDbEntity
8
0
100
AcDbLine
10
-390.85647772690578
20
6.5166839824544098
30
-4.427937646264008e-15
11
-368.26146721059729
21
9.4109988001707734
31
-3.5654616646269152e-15
0
LINE
5
442
100
AcDbEntity
8
0
100
AcDbLine
10
31.632847607119192
20
-121.62680789693354
30
2.9333932137571827e-15
11
29.229545034042388
21
-102.86497639880118
31
1.1102230246251565e-15
0
LINE
5
443
100
AcDbEntity
8
0
100
AcDbLine
10
-314.0400691201998
20
31.870237260044085
30
-6.0712321872662264e-15
11
-296.01639432864079
21
45.800732782611355
31
-1.9777319137554488e-15
0
LINE
5
444
100
AcDbEntity
8
0
100
AcDbLine
10
6.1435222730942041
20
6.5166839824544098
30
-4.427937646264008e-15
11
28.738532789402758
21
9.4109988001707734
31
-3.5654616646269152e-15
0
LINE
5
445
100
AcDbEntity
8
0
100
AcDbLine
10
-82.474642882562748
20
27.451832475220215
30
1.2355545146644098e-15
11
-65.712985847518581
21
32.006009316479336
31
-4.1833567222354228e-15
0
LINE
5
446
100
AcDbEntity
8
0
100
AcDbLine
10
-368.26146721059729
20
9.4109988001707734
30
-3.5654616646269152e-15
11
-365.367152392881
21
32.006009316479407
31
-3.2201461988545566e-15
0
LINE
5
447
100
AcDbEntity
8
0
100
AcDbLine
10
-384.88373976893172
20
-74.154808481224848
30
-5.5323525582630289e-15
11
-404.65120119303771
21
-62.83407408178622
31
1.9373917867547593e-15
0
LINE
5
448
100
AcDbEntity
8
0
100
AcDbLine
10
134.28701415248142
20
32.006009316479336
30
-4.1833567222354228e-15
11
137.1813289701978
21
9.4109988001706668
31
-2.9116942211358814e-15
0
LINE
5
449
100
AcDbEntity
8
0
100
AcDbLine
10
6.1435222730942929
20
-96.137482562908545
30
2.3330200380075403e-16
11
12.116260231068248
21
-74.154808481224819
31
-4.4084509707008121e-15
0
LINE
5
450
100
AcDbEntity
8
0
100
AcDbLine
10
100.98360567135953
20
-135.42153136306567
30
6.4700729557753131e-15
11
82.959930879800439
21
-121.49103584049833
31
4.9610091626410699e-15
0
LINE
5
451
100
AcDbEntity
8
0
100
AcDbLine
10
28.738532789402758
20
9.4109988001707734
30
-3.5654616646269152e-15
11
31.632847607119068
21
32.006009316479407
31
-3.2201461988545566e-15
0
LINE
5
452
100
AcDbEntity
8
0
100
AcDbLine
10
-82.474642882562875
20
27.451832475220215
30
-1.5026532754248911e-16
11
-65.712985847518596
21
32.006009316479336
31
2.4781800689994735e-15
0
ARC
5
453
100
AcDbEntity
8
0
100
AcDbCircle
10
-12.131638773528728
20
-25.895510052635622
30
-3.3306690738754696e-15
40
2.0000000000000089
210
-3.9806851659957657e-17
220
5.4122014833367296e-17
230
1
100
AcDbArc
50
119.79956892954216
51
217.70043107045802
0
LINE
5
454
100
AcDbEntity
8
0
100
AcDbLine
10
165.95993087980034
20
-44.810399290227174
30
8.1847591039818838e-15
11
179.63393839725137
21
-62.502222541784711
31
9.2733974816705219e-15
0
LINE
5
455
100
AcDbEntity
8
0
100
AcDbLine
10
65.268107628242774
20
51.863608227224383
30
-7.8085194916545981e-15
11
82.959930879800226
21
38.189600709773259
31
-6.3272405509160944e-15
0
LINE
5
456
100
AcDbEntity
8
0
100
AcDbLine
10
64.936256088241151
20
45.800732782611391
30
-7.5802959804004696e-15
11
82.959930879800226
21
31.870237260044085
31
-6.0712321872662264e-15
0
LINE
5
457
100
AcDbEntity
8
0
100
AcDbLine
10
-193.85647772690578
20
6.5166839824544098
30
-4.427937646264008e-15
11
-171.26146721059726
21
9.4109988001707734
31
-3.5654616646269152e-15
0
ARC
5
458
100
AcDbEntity
8
0
100
AcDbCircle
10
29.094883589551628
20
35.804340890608444
30
-3.3306690738754696e-15
40
2.0000000000000373
210
-3.9806851659957836e-17
220
5.4122014833366242e-17
230
1
100
AcDbArc
50
74.799568929542886
51
172.7004310704574
0
LINE
5
459
100
AcDbEntity
8
0
100
AcDbLine
10
134.28701415248142
20
32.006009316479336
30
-4.1833567222354228e-15
11
137.1813289701978
21
9.4109988001706668
31
-2.9116942211358814e-15
0
ARC
5
460
100
AcDbEntity
8
0
100
AcDbCircle
10
-21.948499466870679
20
-25.895510052635764
30
7.7715611723760958e-15
40
2.0000000000000231
210
-3.9806851659957183e-17
220
5.4122014833366827e-17
230
1
100
AcDbArc
50
-37.700431070458031
51
60.200431070456887
0
LINE
5
461
100
AcDbEntity
8
0
100
AcDbLine
10
51.197205993497796
20
31.871601908210039
30
-2.1544148160376516e-15
11
62.309503257454764
21
51.275105227691142
31
-8.3793722980646519e-15
0
ARC
5
462
100
AcDbEntity
8
0
100
AcDbCircle
10
64.045041642208901
20
50.281170363102383
30
-7.7715611723760958e-15
40
2.0000000000000071
210
-3.9806851659957626e-17
220
5.4122014833367259e-17
230
1
100
AcDbArc
50
52.299568929542772
51
150.2004310704574
0
LINE
5
463
100
AcDbEntity
8
0
100
AcDbLine
10
29.619276467612377
20
37.734369934286107
30
-3.4142517048977174e-15
11
51.197205993497796
21
31.871601908210039
31
-2.1544148160376516e-15
0
LINE
5
464
100
AcDbEntity
8
0
100
AcDbLine
10
-99.016394328640729
20
45.800732782611355
30
-1.9777319137554488e-15
11
-90.384402302414841
21
30.728162102031327
31
-5.6844881277796143e-15
0
LINE
5
465
100
AcDbEntity
8
0
100
AcDbLine
10
100.98360567135927
20
45.800732782611355
30
-1.9777319137554488e-15
11
109.61559769758517
21
30.728162102031327
31
-5.6844881277796143e-15
0
ARC
5
466
100
AcDbEntity
8
0
100
AcDbCircle
10
-197.65480930103476
20
-98.675446580475949
30
-3.3306690738754696e-15
40
2.0000000000000098
210
-3.9806851659957201e-17
220
5.4122014833367099e-17
230
1
100
AcDbArc
50
164.79956892954209
51
262.70043107045763
0
LINE
5
467
100
AcDbEntity
8
0
100
AcDbLine
10
159.64193207823706
20
-13.047674403924603
30
3.1549087339928917e-15
11
179.04543539771808
21
-24.159971667881663
31
4.7044813695502136e-15
0
LINE
5
468
100
AcDbEntity
8
0
100
AcDbLine
10
28.738532789402758
20
9.4109988001707734
30
-3.5654616646269152e-15
11
31.632847607119068
21
32.006009316479407
31
-3.2201461988545566e-15
0
LINE
5
469
100
AcDbEntity
8
0
100
AcDbLine
10
116.21437492228537
20
32.276905084414267
30
1.2355545146644098e-15
11
136.30058529198809
21
37.734369934286001
31
2.7246458522904326e-15
0
LINE
5
470
100
AcDbEntity
8
0
100
AcDbLine
10
2.0910764070012977
20
11.038438797111993
30
-4.5583743433719196e-15
11
24.270068041316833
21
13.879463548256652
31
-3.7117782522693991e-15
0
LINE
5
471
100
AcDbEntity
8
0
100
AcDbLine
10
12.116260231068168
20
-15.465990099229323
30
-3.1070755063574245e-15
11
6.1435222730942041
21
6.5166839824544098
31
-4.427937646264008e-15
0
LINE
5
472
100
AcDbEntity
8
0
100
AcDbLine
10
173.57106295263833
20
-26.786724498668057
30
7.9445060023055802e-15
11
159.64056743007117
21
-44.810399290227174
31
8.2338445649875988e-15
0
LINE
5
473
100
AcDbEntity
8
0
100
AcDbLine
10
82.959930879800226
20
31.870237260044085
30
-6.0712321872662264e-15
11
100.98360567135927
21
45.800732782611355
31
-1.9777319137554488e-15
0
LINE
5
474
100
AcDbEntity
8
0
100
AcDbLine
10
-187.88373976893183
20
-15.465990099229323
30
-3.1070755063574245e-15
11
-193.85647772690578
21
6.5166839824544098
31
-4.427937646264008e-15
0
LINE
5
475
100
AcDbEntity
8
0
100
AcDbLine
10
-99.016394328640729
20
45.800732782611355
30
-4.7618173365681216e-15
11
-90.384402302414799
21
30.728162102031291
31
-8.3112301891908359e-16
0
ARC
5
476
100
AcDbEntity
8
0
100
AcDbCircle
10
-84.310017955775365
20
34.20693412809193
30
1.1102230246251565e-15
40
7.0000000000000355
210
-8.4232014416538331e-16
220
-4.8239287922750018e-16
230
1
100
AcDbArc
50
209.7995689295422
51
285.20043107045734
0
ARC
5
477
100
AcDbEntity
8
0
100
AcDbCircle
10
136.82497817004884
20
35.804340890608373
30
-4.4408920985006262e-15
40
1.999999999999988
210
-3.980685165995791e-17
220
5.4122014833367117e-17
230
1
100
AcDbArc
50
7.2995689295426116
51
105.2004310704575
0
LINE
5
478
100
AcDbEntity
8
0
100
AcDbLine
10
6.2779296813634922
20
-13.047674403924461
30
-3.1596966129060637e-15
11
0.41516165528753923
21
8.5302551219610478
31
-3.6216654082543892e-15
0
ARC
5
479
100
AcDbEntity
8
0
100
AcDbCircle
10
2.3451906989651494
20
9.054648000021821
30
-4.4408920985006262e-15
40
1.999999999999988
210
-3.9806851659957713e-17
220
5.4122014833368004e-17
230
1
100
AcDbArc
50
97.299568929542602
51
195.20043107045819
0
LINE
5
480
100
AcDbEntity
8
0
100
AcDbLine
10
117.52535711743727
20
27.451832475220215
30
1.2355545146644098e-15
11
134.28701415248142
21
32.006009316479336
31
-4.1833567222354228e-15
0
LINE
5
481
100
AcDbEntity
8
0
100
AcDbLine
10
117.52535711743727
20
27.451832475220215
30
1.2355545146644098e-15
11
134.28701415248142
21
32.006009316479336
31
-4.1833567222354228e-15
0
ARC
5
482
100
AcDbEntity
8
0
100
AcDbCircle
10
115.68998204422464
20
34.20693412809193
30
1.1102230246251565e-15
40
2.0000000000000178
210
-8.7549178893366242e-16
220
-4.2447091187143554e-16
230
1
100
AcDbArc
50
209.7995689295426
51
285.20043107045683
0
LINE
5
483
100
AcDbEntity
8
0
100
AcDbLine
10
24.270068041316833
20
13.879463548256652
30
-3.7117782522693991e-15
11
27.111092792461456
21
36.058455182572295
31
-2.1975024880156337e-15
0
LINE
5
484
100
AcDbEntity
8
0
100
AcDbLine
10
31.632847607119068
20
32.006009316479407
30
-3.2201461988545566e-15
11
53.615521688802659
21
26.03327135850531
31
-1.9366781214067205e-15
0
LINE
5
485
100
AcDbEntity
8
0
100
AcDbLine
10
82.959930879800226
20
31.870237260044085
30
-6.0712321872662264e-15
11
100.98360567135927
21
45.800732782611355
31
-1.9777319137554488e-15
0
LINE
5
486
100
AcDbEntity
8
0
100
AcDbLine
10
-365.367152392881
20
32.006009316479407
30
-3.2201461988545566e-15
11
-343.38447831119737
21
26.03327135850531
31
-1.9366781214067205e-15
0
LINE
5
487
100
AcDbEntity
8
0
100
AcDbLine
10
173.57106295263833
20
-26.786724498668057
30
7.9445060023055802e-15
11
159.64056743007117
21
-44.810399290227174
31
8.2338445649875988e-15
0
ARC
5
488
100
AcDbEntity
8
0
100
AcDbCircle
10
178.05150053312931
20
-25.895510052635764
30
7.7715611723760958e-15
40
2.0000000000000231
210
-3.9806851659957183e-17
220
5.4122014833366827e-17
230
1
100
AcDbArc
50
-37.700431070458031
51
60.200431070456716
0
LINE
5
489
100
AcDbEntity
8
0
100
AcDbLine
10
-40.358067921762952
20
-13.047674403924603
30
3.1549087339928917e-15
11
-20.95456460228192
21
-24.159971667881663
31
4.7044813695502136e-15
0
LINE
5
490
100
AcDbEntity
8
0
100
AcDbLine
10
-343.38447831119737
20
26.03327135850531
30
-1.9366781214067205e-15
11
-332.06374391175882
21
45.800732782611391
31
-7.5802959804004696e-15
0
LINE
5
491
100
AcDbEntity
8
0
100
AcDbLine
10
179.63393839725131
20
-27.118576038669673
30
7.9007478371326129e-15
11
165.95993087980034
21
-44.810399290227174
31
8.1847591039818838e-15
0
LINE
5
492
100
AcDbEntity
8
0
100
AcDbLine
10
12.116260231068168
20
-15.465990099229323
30
-3.1070755063574245e-15
11
6.1435222730942041
21
6.5166839824544098
31
-4.427937646264008e-15
0
LINE
5
493
100
AcDbEntity
8
0
100
AcDbLine
10
53.615521688802659
20
26.03327135850531
30
-1.9366781214067205e-15
11
64.936256088241151
21
45.800732782611391
31
-7.5802959804004696e-15
0
LINE
5
494
100
AcDbEntity
8
0
100
AcDbLine
10
6.1435222730942041
20
6.5166839824544098
30
-4.427937646264008e-15
11
28.738532789402758
21
9.4109988001707734
31
-3.5654616646269152e-15
0
LINE
5
495
100
AcDbEntity
8
0
100
AcDbLine
10
-175.72993195868307
20
-103.50026212871079
30
1.1102230246251565e-15
11
-197.9089235929986
21
-100.65923737756613
31
7.3585210947103694e-17
0
LINE
5
496
100
AcDbEntity
8
0
100
AcDbLine
10
-404.65120119303776
20
-26.78672449866788
30
-3.4172552423437672e-15
11
-384.88373976893183
21
-15.465990099229323
31
-3.1070755063574245e-15
0
ARC
5
497
100
AcDbEntity
8
0
100
AcDbCircle
10
101.87482011739152
20
50.281170363102348
30
-2.2204460492503131e-15
40
2.0000000000000178
210
-3.9806851659957756e-17
220
5.4122014833367105e-17
230
1
100
AcDbArc
50
29.799568929542598
51
127.700431070457
0
LINE
5
498
100
AcDbEntity
8
0
100
AcDbLine
10
64.936256088241151
20
45.800732782611391
30
-7.5802959804004696e-15
11
82.959930879800226
21
31.870237260044085
31
-6.0712321872662264e-15
0
ARC
5
499
100
AcDbEntity
8
0
100
AcDbCircle
10
115.68998204422464
20
34.20693412809193
30
1.1102230246251565e-15
40
7.0000000000000204
210
-8.4232014416538509e-16
220
-4.8239287922750116e-16
230
1
100
AcDbArc
50
209.79956892954226
51
285.20043107045746
0
LINE
5
500
100
AcDbEntity
8
0
100
AcDbLine
10
31.632847607119068
20
32.006009316479407
30
-3.2201461988545566e-15
11
53.615521688802659
21
26.03327135850531
31
-1.9366781214067205e-15
0
LINE
5
501
100
AcDbEntity
8
0
100
AcDbLine
10
138.808768967139
20
36.058455182572224
30
-4.3756768099955066e-15
11
141.64979371828369
21
13.879463548256545
31
-3.1274281334479816e-15
0
LINE
5
502
100
AcDbEntity
8
0
100
AcDbLine
10
82.959930879800226
20
38.189600709773259
30
-6.3272405509160944e-15
11
100.65175413135765
21
51.863608227224361
31
-4.4767011524227537e-15
0
LINE
5
503
100
AcDbEntity
8
0
100
AcDbLine
10
53.615521688802659
20
26.03327135850531
30
-1.9366781214067205e-15
11
64.936256088241151
21
45.800732782611391
31
-7.5802959804004696e-15
0
LINE
5
504
100
AcDbEntity
8
0
100
AcDbLine
10
-40.223660513493527
20
-96.137482562908687
30
9.953616485895664e-15
11
-62.818671029802132
21
-99.031797380625051
31
1.1363550562417488e-15
0
LINE
5
505
100
AcDbEntity
8
0
100
AcDbLine
10
-65.712985847518382
20
-121.62680789693361
30
9.7731062030972902e-15
11
-87.695659929201994
21
-115.65406993895962
31
1.0385153420223256e-14
0
ARC
5
506
100
AcDbEntity
8
0
100
AcDbCircle
10
-98.125179882608251
20
-139.90196894355671
30
6.6613381477509392e-15
40
2.0000000000000013
210
-3.9806851659957688e-17
220
5.4122014833367099e-17
230
1
100
AcDbArc
50
232.29956892954226
51
330.20043107045865
0
LINE
5
507
100
AcDbEntity
8
0
100
AcDbLine
10
153.80360152853245
20
-74.15480848122499
30
1.9968524817322672e-15
11
159.77633948650646
21
-96.137482562908687
31
3.3177146216388514e-15
0
ARC
5
508
100
AcDbEntity
8
0
100
AcDbCircle
10
-21.948499466870608
20
-63.725288527818584
30
2.2204460492503131e-15
40
2.0000000000000089
210
-3.9806851659957571e-17
220
5.4122014833367068e-17
230
1
100
AcDbArc
50
-60.200431070457753
51
37.70043107045754
0
LINE
5
509
100
AcDbEntity
8
0
100
AcDbLine
10
-40.359432569928813
20
-44.810399290227174
30
8.2338445649875988e-15
11
-26.428937047361583
21
-62.834074081786326
31
2.3070322177186103e-15
0
ARC
5
510
100
AcDbEntity
8
0
100
AcDbCircle
10
-12.131638773528692
20
-63.725288527818478
30
0
40
2.0000000000000013
210
-3.9806851659957824e-17
220
5.4122014833367222e-17
230
1
100
AcDbArc
50
142.29956892954277
51
240.20043107045825
0
LINE
5
511
100
AcDbEntity
8
0
100
AcDbLine
10
-207.65120119303774
20
-62.83407408178622
30
-1.7294482992948409e-16
11
-193.72070567047052
21
-44.810399290227068
31
-4.6228339261150319e-16
0
LINE
5
512
100
AcDbEntity
8
0
100
AcDbLine
10
-137.69049674254501
20
-140.89590380814536
30
9.9767146600790126e-15
11
-148.80279400650204
21
-121.49240048866432
31
8.4995049583624739e-15
0
ARC
5
513
100
AcDbEntity
8
0
100
AcDbCircle
10
-135.95495835779087
20
-139.90196894355662
30
9.9920072216264089e-15
40
2
210
-3.9806851659956918e-17
220
5.4122014833367567e-17
230
1
100
AcDbArc
50
209.79956892954203
51
307.70043107045723
0
LINE
5
514
100
AcDbEntity
8
0
100
AcDbLine
10
-135.06374391175865
20
-135.42153136306558
30
3.6515943119429619e-15
11
-146.38447831119717
21
-115.65406993895962
31
8.9108060400318448e-15
0
LINE
5
515
100
AcDbEntity
8
0
100
AcDbLine
10
-7.6512011930377177
20
-62.83407408178622
30
-1.7294482992948409e-16
11
6.2792943295294457
21
-44.810399290227068
31
-4.6228339261150319e-16
0
LINE
5
516
100
AcDbEntity
8
0
100
AcDbLine
10
-46.19639847146756
20
-74.15480848122499
30
1.9968524817322672e-15
11
-40.223660513493527
21
-96.137482562908687
31
3.3177146216388514e-15
0
LINE
5
517
100
AcDbEntity
8
0
100
AcDbLine
10
12.116260231068248
20
-74.154808481224819
30
-4.4084509707008121e-15
11
-7.6512011930377177
21
-62.83407408178622
31
-1.7294482992948409e-16
0
LINE
5
518
100
AcDbEntity
8
0
100
AcDbLine
10
-46.19639847146756
20
-74.154808481224961
30
4.3459954387751373e-16
11
-40.223660513493527
21
-96.137482562908687
31
9.953616485895664e-15
0
LINE
5
519
100
AcDbEntity
8
0
100
AcDbLine
10
-20.954564602281867
20
-65.460826912572713
30
2.3539423011681982e-15
11
-40.358067921762867
21
-76.573124176529817
31
2.0494735882809067e-15
0
LINE
5
520
100
AcDbEntity
8
0
100
AcDbLine
10
-40.223660513493527
20
-96.137482562908687
30
3.3177146216388514e-15
11
-62.818671029802111
21
-99.031797380625051
31
2.4552386400017594e-15
0
LWPOLYLINE
5
521
100
AcDbEntity
8
0
100
AcDbPolyline
90
49
70
1
43
0.0
10
199.95993087980037
20
-44.810399290226997
10
186.28592336234934
20
-62.502222541784498
42
0.45520394892930749
10
186.87442636188257
20
-65.460826912572543
10
206.27792968136359
20
-76.573124176529575
10
200.41516165528765
20
-98.151053702415084
42
0.45520394892930194
10
202.09107640700142
20
-100.65923737756606
10
224.27006804131696
20
-103.50026212871069
10
227.11109279246162
20
-125.67925376302632
42
0.45520394892928939
10
229.61927646761254
20
-127.3551685147401
10
251.19720599349793
20
-121.49240048866417
10
262.30950325745499
20
-140.89590380814528
42
0.45520394892929222
10
265.268107628243
20
-141.48440680767848
10
282.95993087980042
20
-127.81039929022739
10
300.6517541313579
20
-141.48440680767857
42
0.45520394892928295
10
303.61035850214586
20
-140.89590380814528
10
314.72265576610289
20
-121.49240048866417
10
336.30058529198828
20
-127.35516851474024
42
0.45520394892930066
10
338.8087689671392
20
-125.6792537630264
10
341.64979371828383
20
-103.50026212871079
10
363.82878535259931
20
-100.65923737756613
42
0.45520394892930349
10
365.50470010431309
20
-98.151053702415183
10
359.64193207823712
20
-76.573124176529674
10
379.04543539771805
20
-65.460826912572657
42
0.45520394892931071
10
379.63393839725131
20
-62.502222541784604
10
365.95993087980025
20
-44.810399290227103
10
379.63393839725131
20
-27.118576038669602
42
0.45520394892930577
10
379.04543539771799
20
-24.159971667881557
10
359.64193207823706
20
-13.047674403924496
10
365.50470010431297
20
8.5302551219609768
42
0.45520394892930799
10
363.8287853525992
20
11.038438797111922
10
341.64979371828366
20
13.879463548256616
10
338.80876896713903
20
36.058455182572295
42
0.45520394892929678
10
336.30058529198806
20
37.734369934286072
10
316.2143749222854
20
32.276905084414331
42
-0.34140605711067795
10
313.95444365947048
20
33.212999263503207
10
303.61035850214563
20
51.275105227691157
42
0.45520394892929683
10
300.65175413135762
20
51.863608227224404
10
282.95993087980025
20
38.18960070977333
10
265.26810762824277
20
51.863608227224418
42
0.45520394892930083
10
262.30950325745476
20
51.275105227691178
10
251.19720599349779
20
31.87160190821011
10
229.61927646761239
20
37.734369934286143
42
0.45520394892929611
10
227.11109279246148
20
36.058455182572366
10
224.27006804131685
20
13.879463548256723
10
202.09107640700131
20
11.038438797112065
42
0.45520394892929678
10
200.41516165528753
20
8.5302551219611189
10
206.2779296813635
20
-13.04767440392439
10
186.87442636188257
20
-24.159971667881415
42
0.45520394892930149
10
186.28592336234931
20
-27.118576038669424
0
LWPOLYLINE
5
522
100
AcDbEntity
8
0
100
AcDbPolyline
90
4
70
1
43
0.0
10
247.95993087980042
20
-52.436407413853914
10
317.95993087980042
20
-52.436407413853914
10
317.95993087980042
20
-27.436407413853914
10
247.95993087980042
20
-27.436407413853914
0
LINE
5
523
100
AcDbEntity
8
0
100
AcDbLine
10
247.95993087980042
20
-52.436407413853914
30
-3.8679348598024477e-12
11
317.95993087980042
21
-27.436407413853914
31
3.8789654719408545e-12
0
LINE
5
524
100
AcDbEntity
8
0
100
AcDbLine
10
317.95993087980042
20
-52.436407413853914
30
-3.8679348598024477e-12
11
247.95993087980042
21
-27.436407413853914
31
-3.8679348598024477e-12
0
LINE
5
525
100
AcDbEntity
8
0
100
AcDbLine
10
-40.358067921762952
20
-13.047674403924603
30
3.1549087339928917e-15
11
-46.196398471467646
21
-15.465990099229465
31
3.2982279460756548e-15
0
LINE
5
526
100
AcDbEntity
8
0
100
AcDbLine
10
-58.350206281716304
20
13.879463548256545
30
-3.1274281334479816e-15
11
-62.818671029802218
21
9.4109988001706668
31
-4.0348894794026852e-15
0
LINE
5
527
100
AcDbEntity
8
0
100
AcDbLine
10
159.64193207823706
20
-13.047674403924603
30
3.1549087339928917e-15
11
153.80360152853234
21
-15.465990099229465
31
3.2982279460756548e-15
0
LINE
5
528
100
AcDbEntity
8
0
100
AcDbLine
10
141.64979371828369
20
13.879463548256545
30
-3.1274281334479816e-15
11
137.1813289701978
21
9.4109988001706668
31
-2.9116942211358814e-15
0
ENDSEC
0
SECTION
2
OBJECTS
0
DICTIONARY
5
C
100
AcDbDictionary
3
ACAD_GROUP
350
D
3
ACAD_MLINESTYLE
350
17
0
DICTIONARY
5
D
100
AcDbDictionary
0
DICTIONARY
5
1A
330
C
100
AcDbDictionary
0
DICTIONARY
5
17
100
AcDbDictionary
0
ENDSEC
0
EOF
